<?xml version="1.0" encoding="UTF-8" standalone="no"?>
<svg
   xmlns:dc="http://purl.org/dc/elements/1.1/"
   xmlns:cc="http://creativecommons.org/ns#"
   xmlns:rdf="http://www.w3.org/1999/02/22-rdf-syntax-ns#"
   xmlns:svg="http://www.w3.org/2000/svg"
   xmlns="http://www.w3.org/2000/svg"
   xmlns:xlink="http://www.w3.org/1999/xlink"
   xmlns:sodipodi="http://sodipodi.sourceforge.net/DTD/sodipodi-0.dtd"
   xmlns:inkscape="http://www.inkscape.org/namespaces/inkscape"
   version="1.1"
   id="svg2"
   viewBox="0 0 512 174.99999"
   height="175"
   width="512"
   inkscape:version="0.91 r13725"
   sodipodi:docname="logo.svg">
  <sodipodi:namedview
     pagecolor="#ffffff"
     bordercolor="#666666"
     borderopacity="1"
     objecttolerance="10"
     gridtolerance="10"
     guidetolerance="10"
     inkscape:pageopacity="0"
     inkscape:pageshadow="2"
     inkscape:window-width="1600"
     inkscape:window-height="834"
     id="namedview26"
     showgrid="false"
     inkscape:snap-to-guides="false"
     inkscape:snap-page="false"
     inkscape:snap-text-baseline="false"
     inkscape:zoom="0.70710678"
     inkscape:cx="177.22456"
     inkscape:cy="80.592573"
     inkscape:window-x="0"
     inkscape:window-y="27"
     inkscape:window-maximized="1"
     inkscape:current-layer="svg2" />
  <title
     id="title4390">SQLUP logo</title>
  <defs
     id="defs4">
    <linearGradient
       inkscape:collect="always"
       id="linearGradient4189">
      <stop
         style="stop-color:#220c00;stop-opacity:1"
         offset="0"
         id="stop4177" />
      <stop
         style="stop-color:#4d2c03;stop-opacity:1"
         offset="1"
         id="stop4179" />
    </linearGradient>
    <linearGradient
       inkscape:collect="always"
       xlink:href="#linearGradient4189"
       id="linearGradient4181"
       x1="122.77655"
       y1="-308.21756"
       x2="388.64633"
       y2="-296.67374"
       gradientUnits="userSpaceOnUse" />
  </defs>
  <metadata
     id="metadata7">
    <rdf:RDF>
      <cc:Work
         rdf:about="">
        <dc:format>image/svg+xml</dc:format>
        <dc:type
           rdf:resource="http://purl.org/dc/dcmitype/StillImage" />
        <dc:title>SQLUP logo</dc:title>
        <cc:license
           rdf:resource="http://creativecommons.org/licenses/by-sa/3.0/" />
        <dc:creator>
          <cc:Agent>
            <dc:title>startx</dc:title>
          </cc:Agent>
        </dc:creator>
      </cc:Work>
      <cc:License
         rdf:about="http://creativecommons.org/licenses/by-sa/3.0/">
        <cc:permits
           rdf:resource="http://creativecommons.org/ns#Reproduction" />
        <cc:permits
           rdf:resource="http://creativecommons.org/ns#Distribution" />
        <cc:requires
           rdf:resource="http://creativecommons.org/ns#Notice" />
        <cc:requires
           rdf:resource="http://creativecommons.org/ns#Attribution" />
        <cc:permits
           rdf:resource="http://creativecommons.org/ns#DerivativeWorks" />
        <cc:requires
           rdf:resource="http://creativecommons.org/ns#ShareAlike" />
      </cc:License>
    </rdf:RDF>
  </metadata>
  <g
     transform="matrix(1.0162914,0,0,1.1143868,24.50065,433.44879)"
     style="font-style:normal;font-weight:normal;font-size:83.65341187px;line-height:150%;font-family:Sans;letter-spacing:0px;word-spacing:1.05164289px;fill:url(#linearGradient4181);fill-opacity:1;stroke:#3d2e05;stroke-width:1px;stroke-linecap:butt;stroke-linejoin:miter;stroke-opacity:1"
     id="text4154">
    <path
       d="m 62.21083,-268.16947 q 9.65e-4,0.40847 -0.243341,0.73582 -0.20346,0.32725 -0.815674,0.53293 -0.571367,0.20559 -1.551392,0.33044 -0.980025,0.12486 -2.491344,0.12843 -1.470472,0.003 -2.451076,-0.11674 -0.980604,-0.12023 -1.552937,-0.32311 -0.572333,-0.20288 -0.818184,-0.52907 -0.245851,-0.32619 -0.246816,-0.73466 l -0.10166,-43.0113 -0.08169,1.9e-4 -15.215853,43.00666 q -0.16213,0.53139 -0.528879,0.89988 -0.366846,0.32764 -1.019906,0.53342 -0.612214,0.20568 -1.592432,0.24884 -0.980122,0.084 -2.368901,0.0873 -1.388779,0.003 -2.369383,-0.11694 -0.980508,-0.0794 -1.634534,-0.28206 -0.613276,-0.24363 -0.981666,-0.56953 -0.36839,-0.32591 -0.491992,-0.77493 l -14.887975,-42.93551 -0.08169,2e-4 0.10166,43.0113 q 9.65e-4,0.40847 -0.243341,0.73582 -0.20346,0.32725 -0.8156738,0.53293 -0.6122139,0.20568 -1.5922389,0.33054 -0.9391785,0.12476 -2.4504969,0.12833 -1.4704719,0.003 -2.4510762,-0.11675 -0.9806042,-0.12022 -1.5937835,-0.323 -0.572333,-0.20288 -0.81818395,-0.52908 -0.20500456,-0.32628 -0.20596998,-0.73475 l -0.11131386,-47.09595 q -0.004924,-2.08317 1.09532359,-3.18863 1.1002473,-1.10546 2.9383372,-1.1098 l 7.0255883,-0.0166 q 1.878936,-0.004 3.227641,0.31915 1.348608,0.28274 2.330661,1.01566 0.981956,0.69207 1.638299,1.87507 0.656246,1.14216 1.150458,2.85655 l 11.511438,31.46557 0.163386,-3.8e-4 11.771227,-31.43891 q 0.526949,-1.71681 1.136846,-2.90281 0.650743,-1.18609 1.465934,-1.92325 0.856038,-0.73727 1.999062,-1.0259 1.142928,-0.32947 2.654247,-0.33304 l 7.22982,-0.0171 q 1.102854,-0.003 1.879612,0.28148 0.817605,0.284 1.309114,0.85469 0.532258,0.52975 0.779268,1.3461 0.287759,0.7754 0.290173,1.79657 l 0.111314,47.09594 z"
       style="font-style:normal;font-variant:normal;font-weight:bold;font-stretch:normal;font-size:83.65374756px;line-height:150%;font-family:Calibri;-inkscape-font-specification:'Calibri, Bold';text-align:start;writing-mode:lr-tb;text-anchor:start;fill:url(#linearGradient4181);fill-opacity:1;stroke:#3d2e05;stroke-opacity:1"
       id="path4194" />
    <path
       d="m 109.17283,-288.56113 q 0.19597,4.65238 -0.86676,8.54012 -1.06272,3.88775 -3.43526,6.76771 -2.37254,2.87997 -6.063488,4.5481 -3.690949,1.66814 -8.710625,1.87958 -4.856434,0.20456 -8.504474,-0.99091 -3.64804,-1.19547 -6.12334,-3.66681 -2.4753,-2.47135 -3.77614,-6.17778 -1.300841,-3.70642 -1.503685,-8.52204 -0.195969,-4.65238 0.866754,-8.54013 1.101814,-3.93027 3.476072,-6.76943 2.372538,-2.87996 6.022678,-4.54638 3.69095,-1.66813 8.710625,-1.87957 4.897244,-0.20628 8.545284,0.98918 3.646319,1.15466 6.080809,3.62773 2.4753,2.47135 3.77614,6.17777 1.30084,3.70642 1.50541,8.56286 z m -10.552698,0.85333 q -0.113456,-2.69349 -0.656916,-4.91915 -0.504369,-2.26819 -1.595108,-3.89844 -1.09074,-1.63025 -2.844313,-2.49669 -1.712762,-0.86816 -4.283815,-0.75986 -2.285381,0.0963 -3.963317,1.02548 -1.679655,0.88841 -2.712774,2.56724 -1.034838,1.63802 -1.509918,3.94746 -0.435988,2.26692 -0.313937,5.16446 0.113455,2.69348 0.658635,4.95995 0.54346,2.22566 1.593389,3.85763 1.090739,1.63025 2.844312,2.49669 1.751854,0.82563 4.282097,0.71905 2.326191,-0.098 4.005846,-0.98639 1.677936,-0.92922 2.712774,-2.56723 1.034838,-1.63802 1.470826,-3.90494 0.43427,-2.30773 0.312219,-5.20526 z"
       style="font-style:normal;font-variant:normal;font-weight:bold;font-stretch:normal;font-size:83.65374756px;line-height:150%;font-family:Calibri;-inkscape-font-specification:'Calibri, Bold';text-align:start;writing-mode:lr-tb;text-anchor:start;fill:url(#linearGradient4181);fill-opacity:1;stroke:#3d2e05;stroke-opacity:1"
       id="path4196" />
    <path
       d="m 152.60358,-273.75122 q 0.0389,0.40661 -0.17395,0.75524 -0.21673,0.30796 -0.76654,0.56572 -0.5498,0.25777 -1.55854,0.43633 -0.9642,0.21534 -2.42799,0.35537 -1.50445,0.14392 -2.53265,0.11919 -0.98364,0.012 -1.57234,-0.13682 -0.5887,-0.14885 -0.8599,-0.41014 -0.27508,-0.30194 -0.31398,-0.70855 l -1.97989,-20.69641 q -0.25284,-2.64296 -0.80337,-4.10852 -0.50987,-1.46945 -1.3429,-2.45661 -0.83692,-1.02783 -2.07055,-1.48428 -1.19685,-0.501 -2.74196,-0.35319 -1.95173,0.18671 -3.80797,1.80044 -1.85624,1.61373 -3.75066,4.54417 l 2.30664,24.11193 q 0.0389,0.40661 -0.17395,0.75523 -0.21674,0.30797 -0.8072,0.56962 -0.54981,0.25776 -1.51789,0.43244 -0.96419,0.21534 -2.46865,0.35926 -1.50445,0.14392 -2.49198,0.11529 -0.98364,0.012 -1.61301,-0.13292 -0.5887,-0.14885 -0.85989,-0.41014 -0.27509,-0.30195 -0.31398,-0.70856 l -3.46968,-36.26954 q -0.0389,-0.40661 0.13717,-0.71069 0.17219,-0.34473 0.68133,-0.59861 0.50915,-0.25387 1.31459,-0.41298 0.84221,-0.20367 2.10269,-0.32426 1.30115,-0.12447 2.1667,-0.0842 0.86166,-3.6e-4 1.32838,0.16015 0.50738,0.15663 0.7418,0.46247 0.23054,0.26518 0.26943,0.67179 l 0.40065,4.18807 q 2.69773,-3.54072 5.63237,-5.46278 2.9753,-1.92595 6.35015,-2.2488 3.70015,-0.35397 6.33782,0.62469 2.67833,0.97478 4.42571,2.94133 1.78416,1.92201 2.74379,4.66149 0.95963,2.73947 1.33694,6.68358 l 2.14326,22.40417 z"
       style="font-style:normal;font-variant:normal;font-weight:bold;font-stretch:normal;font-size:83.65374756px;line-height:150%;font-family:Calibri;-inkscape-font-specification:'Calibri, Bold';text-align:start;writing-mode:lr-tb;text-anchor:start;fill:url(#linearGradient4181);fill-opacity:1;stroke:#3d2e05;stroke-opacity:1"
       id="path4198" />
    <path
       d="m 195.86606,-281.09544 q 0.0733,0.40183 -0.10916,0.76728 -0.1496,0.31794 -0.7157,0.62881 -0.53325,0.26336 -1.52318,0.52698 -0.98259,0.30381 -2.58993,0.59703 -1.64752,0.30054 -2.70695,0.41076 -1.01924,0.10289 -1.73168,0.0668 -0.67959,-0.0836 -1.09988,-0.33912 -0.4203,-0.2555 -0.79687,-0.72657 l -15.37974,-16.7091 3.45992,18.96658 q 0.0733,0.40183 -0.10915,0.76728 -0.18979,0.32527 -0.75589,0.63614 -0.52592,0.30354 -1.47566,0.55984 -0.94241,0.29647 -2.4292,0.5677 -1.48678,0.27122 -2.47318,0.3266 -0.97906,0.0956 -1.61846,0.005 -0.59922,-0.0983 -0.89164,-0.33559 -0.29974,-0.27748 -0.37304,-0.67932 l -9.63939,-52.8412 q -0.0733,-0.40183 0.10916,-0.76728 0.18245,-0.36545 0.70837,-0.66899 0.55877,-0.35106 1.50118,-0.64754 0.94241,-0.29648 2.4292,-0.5677 1.48679,-0.27122 2.47318,-0.3266 0.98639,-0.0554 1.59294,0.0831 0.6394,0.091 0.93915,0.36845 0.29974,0.27748 0.37304,0.67932 l 5.73965,31.46362 8.00616,-16.20033 q 0.2335,-0.54084 0.56936,-0.97579 0.33587,-0.43496 0.94215,-0.75316 0.64647,-0.32553 1.59621,-0.58183 0.98259,-0.30381 2.50956,-0.58236 1.48679,-0.27122 2.51336,-0.33393 1.05943,-0.11022 1.69884,-0.0193 0.67958,0.0836 0.97933,0.36112 0.29241,0.2373 0.37304,0.67932 0.10996,0.60275 -0.0869,1.34451 -0.15667,0.73443 -0.62015,1.60787 l -8.31809,13.80751 15.55866,16.5519 q 0.6288,0.7157 0.93968,1.2818 0.34372,0.51859 0.43169,1.00079 z"
       style="font-style:normal;font-variant:normal;font-weight:bold;font-stretch:normal;font-size:83.65374756px;line-height:150%;font-family:Calibri;-inkscape-font-specification:'Calibri, Bold';text-align:start;writing-mode:lr-tb;text-anchor:start;fill:url(#linearGradient4181);fill-opacity:1;stroke:#3d2e05;stroke-opacity:1"
       id="path4200" />
    <path
       d="m 228.50305,-308.95301 q 0.38534,1.839 -0.2699,2.89445 -0.61527,1.04706 -2.05449,1.34864 l -21.70822,4.54878 q 0.47749,2.27876 1.39094,4.04884 0.94504,1.72172 2.38086,2.79807 1.46741,1.02799 3.44883,1.32227 2.02139,0.28591 4.61998,-0.2586 2.63857,-0.55289 4.56209,-1.33156 1.91514,-0.81863 3.26221,-1.55997 1.37868,-0.7897 2.26276,-1.35055 0.87571,-0.60084 1.47538,-0.72649 0.35981,-0.0754 0.63319,0.0342 0.265,0.0697 0.5003,0.39597 0.23531,0.3263 0.4177,0.99755 0.21399,0.6229 0.42342,1.62236 0.1843,0.87952 0.27835,1.52755 0.0857,0.60805 0.0979,1.06457 0.0122,0.45651 -0.0807,0.80985 -0.10127,0.31336 -0.32248,0.65184 -0.18123,0.33012 -1.24008,1.05279 -1.05884,0.72268 -2.75734,1.57939 -1.70688,0.81673 -3.9586,1.62243 -2.24335,0.84568 -4.88192,1.39857 -4.75742,0.99688 -8.60678,0.55147 -3.80938,-0.45379 -6.71908,-2.38984 -2.90971,-1.93604 -4.88813,-5.40271 -1.93844,-3.47505 -2.98558,-8.47234 -0.99688,-4.75742 -0.55338,-8.81505 0.43512,-4.0976 2.24095,-7.23042 1.79746,-3.1728 4.86243,-5.27572 3.10496,-2.1113 7.34266,-2.99927 4.47757,-0.93824 7.9123,-0.28075 3.47471,0.64912 6.00786,2.5806 2.52476,1.89151 4.15441,4.88872 1.62965,2.99722 2.4171,6.75518 l 0.33509,1.59913 z m -10.35786,-0.83442 q -0.76804,-4.26283 -3.10967,-6.27618 -2.31003,-2.06171 -6.10797,-1.26588 -1.91896,0.4021 -3.20739,1.42329 -1.24845,1.01281 -1.94824,2.45319 -0.66819,1.39202 -0.83607,3.18001 -0.13627,1.73964 0.17749,3.63537 l 15.03185,-3.1498 z"
       style="font-style:normal;font-variant:normal;font-weight:bold;font-stretch:normal;font-size:83.65374756px;line-height:150%;font-family:Calibri;-inkscape-font-specification:'Calibri, Bold';text-align:start;writing-mode:lr-tb;text-anchor:start;fill:url(#linearGradient4181);fill-opacity:1;stroke:#3d2e05;stroke-opacity:1"
       id="path4202" />
    <path
       d="m 261.59029,-288.54413 -4.51909,12.87021 q -0.37613,1.01806 -2.01369,1.45371 -1.63756,0.43565 -4.78264,0.40937 -1.6338,-0.0136 -2.61272,-0.18521 -0.97926,-0.13073 -1.46667,-0.46158 -0.48741,-0.33086 -0.52416,-0.82134 -0.0368,-0.49048 0.25496,-1.18246 l 4.96259,-12.17209 q -0.52894,-0.24951 -0.97414,-0.7434 -0.40402,-0.5344 -0.60347,-1.10794 l -12.25967,-33.59776 q -0.51905,-1.43401 -0.51291,-2.16922 0.006,-0.77606 0.50004,-1.18042 0.4939,-0.4452 1.63892,-0.59903 1.18588,-0.15348 3.1056,-0.13745 1.75634,0.0147 2.77679,0.10489 1.02078,0.0494 1.59057,0.29923 0.56978,0.24984 0.85126,0.78322 0.28182,0.49253 0.55989,1.43436 l 8.37379,24.45619 0.12253,0.001 8.05005,-24.80917 q 0.25395,-1.05993 0.62428,-1.38362 0.41152,-0.36419 1.31148,-0.52007 0.89996,-0.15587 3.14644,-0.1371 1.75634,0.0147 2.89864,0.1876 1.18315,0.17328 1.71038,0.62701 0.56808,0.45407 0.56159,1.23013 -0.006,0.73521 -0.34143,1.75361 l -12.42921,35.59731 z"
       style="font-style:normal;font-variant:normal;font-weight:bold;font-stretch:normal;font-size:83.65374756px;line-height:150%;font-family:Calibri;-inkscape-font-specification:'Calibri, Bold';text-align:start;writing-mode:lr-tb;text-anchor:start;fill:url(#linearGradient4181);fill-opacity:1;stroke:#3d2e05;stroke-opacity:1"
       id="path4204" />
    <path
       d="m 296.63411,-308.75393 q 0.0138,2.36906 -0.43003,3.31113 -0.44383,0.94207 -1.42413,0.94779 l -16.99188,0.099 q -1.02115,0.006 -1.47592,-0.93089 -0.45502,-0.97768 -0.46859,-3.30589 -0.0133,-2.28737 0.4305,-3.22945 0.44383,-0.94207 1.46498,-0.94802 l 16.99188,-0.099 q 0.49015,-0.003 0.81811,0.19947 0.3688,0.20209 0.61673,0.69081 0.24793,0.48872 0.33438,1.30516 0.1273,0.8162 0.13397,1.95989 z"
       style="font-style:normal;font-variant:normal;font-weight:bold;font-stretch:normal;font-size:83.65374756px;line-height:150%;font-family:Calibri;-inkscape-font-specification:'Calibri, Bold';text-align:start;writing-mode:lr-tb;text-anchor:start;fill:url(#linearGradient4181);fill-opacity:1;stroke:#3d2e05;stroke-opacity:1"
       id="path4206" />
    <path
       d="m 350.85677,-317.93179 q 0.3852,6.565 -0.94201,11.83931 -1.3272,5.27431 -4.33561,9.09242 -3.01079,3.77733 -7.66919,5.97375 -4.62001,2.15325 -10.8588,2.51931 -6.15724,0.36127 -10.85828,-0.95866 -4.66266,-1.36309 -7.91469,-4.48654 -3.25203,-3.12345 -5.1006,-8.12959 -1.80779,-5.00853 -2.21691,-11.9813 -0.37563,-6.4019 0.95636,-11.59465 1.3296,-5.23353 4.34039,-9.01087 3.0108,-3.77734 7.62842,-5.97136 4.65839,-2.19642 10.93796,-2.56487 5.99413,-0.3517 10.6544,0.97062 4.70105,1.31992 7.95307,4.44337 3.29281,3.12106 5.13898,8.08642 1.88457,4.9222 2.28651,11.77264 z m -11.2208,1.2312 q -0.24404,-4.15919 -1.09504,-7.50536 -0.85339,-3.38693 -2.58483,-5.69944 -1.69306,-2.35566 -4.37931,-3.50739 -2.68865,-1.1925 -6.60318,-0.96282 -3.95532,0.23208 -6.51726,1.89632 -2.56434,1.62347 -4.04945,4.20653 -1.48511,2.58306 -1.98213,5.9674 -0.45862,3.34117 -0.2409,7.05183 0.2536,4.3223 1.10939,7.75002 0.8534,3.38693 2.54645,5.7426 1.69306,2.35567 4.37931,3.5074 2.68386,1.11095 6.63917,0.87887 3.95532,-0.23207 6.51965,-1.85554 2.56434,-1.62347 4.04706,-4.24731 1.48272,-2.62384 1.93896,-6.00578 0.49462,-3.42512 0.27211,-7.21733 z"
       style="font-style:normal;font-variant:normal;font-weight:bold;font-stretch:normal;font-size:83.65374756px;line-height:150%;font-family:Calibri;-inkscape-font-specification:'Calibri, Bold';text-align:start;writing-mode:lr-tb;text-anchor:start;fill:url(#linearGradient4181);fill-opacity:1;stroke:#3d2e05;stroke-opacity:1"
       id="path4208" />
    <path
       d="m 394.80068,-316.33392 q 0.57529,4.82658 -0.0152,8.84598 -0.55472,3.97401 -2.21824,6.92838 -1.66351,2.95436 -4.45031,4.76741 -2.78681,1.81305 -6.5994,2.26748 -1.58182,0.18854 -2.95895,0.0236 -1.33175,-0.12922 -2.6616,-0.58775 -1.29414,-0.50392 -2.62211,-1.29176 -1.32798,-0.78783 -2.77574,-1.89048 l 2.03042,17.03498 q 0.0484,0.40559 -0.15634,0.75907 -0.20468,0.35349 -0.7889,0.6288 -0.53882,0.31104 -1.49775,0.54874 -0.95892,0.2377 -2.45962,0.41657 -1.5007,0.17887 -2.48863,0.17322 -0.98793,-0.006 -1.62533,-0.17649 -0.59201,-0.13512 -0.87404,-0.43059 -0.28203,-0.29547 -0.33037,-0.70107 l -6.0236,-50.53709 q -0.0484,-0.40559 0.12061,-0.71368 0.16412,-0.34865 0.62666,-0.60946 0.50311,-0.26564 1.30463,-0.44345 0.83724,-0.2232 2.09459,-0.37306 1.21678,-0.14503 2.04247,-0.12004 0.86142,-0.0204 1.3723,0.12438 0.55145,0.13995 0.79292,0.44026 0.23664,0.25974 0.28498,0.66533 l 0.50761,4.25875 q 1.38844,-1.81092 2.74411,-3.20658 1.3914,-1.44104 2.87653,-2.44077 1.4803,-1.04029 3.09489,-1.64409 1.65516,-0.60864 3.56145,-0.83586 3.97483,-0.47376 6.96197,0.77449 2.98231,1.20769 5.05027,3.71729 2.10852,2.50478 3.34996,6.01788 1.24145,3.51311 1.72972,7.60961 z m -10.53956,1.99667 q -0.27556,-2.31189 -0.89198,-4.37747 -0.5807,-2.11098 -1.63065,-3.67239 -1.0094,-1.56625 -2.50445,-2.37531 -1.45932,-0.85446 -3.48729,-0.61274 -1.01399,0.12086 -1.9893,0.56619 -0.93959,0.39994 -1.91195,1.21515 -0.9318,0.81037 -1.89638,2.036 -0.96458,1.22563 -1.98799,2.99304 l 1.4213,11.92449 q 2.47355,2.46126 4.59928,3.72991 2.12089,1.22809 4.22998,0.97671 1.98742,-0.23689 3.24558,-1.41524 1.29872,-1.18319 1.99766,-2.91192 0.6941,-1.7693 0.85314,-3.88617 0.1996,-2.12171 -0.0469,-4.19025 z"
       style="font-style:normal;font-variant:normal;font-weight:bold;font-stretch:normal;font-size:83.65374756px;line-height:150%;font-family:Calibri;-inkscape-font-specification:'Calibri, Bold';text-align:start;writing-mode:lr-tb;text-anchor:start;fill:url(#linearGradient4181);fill-opacity:1;stroke:#3d2e05;stroke-opacity:1"
       id="path4210" />
    <path
       d="m 428.77232,-312.83822 q 0.43747,3.07336 -0.40139,5.58575 -0.79842,2.50664 -2.67675,4.38308 -1.87833,1.87645 -4.64012,3.05348 -2.75604,1.21748 -6.11247,1.69525 -2.02195,0.28782 -3.92819,0.2291 -1.86004,-0.024 -3.37916,-0.26164 -1.52488,-0.27804 -2.56449,-0.62516 -1.03961,-0.34712 -1.542,-0.68819 -0.50815,-0.3815 -0.87742,-1.23662 -0.37503,-0.89556 -0.6283,-2.67487 -0.16694,-1.17273 -0.18392,-1.87171 -0.0227,-0.73941 0.0815,-1.16682 0.0984,-0.46786 0.3238,-0.62371 0.21961,-0.19629 0.58356,-0.2481 0.44483,-0.0633 1.36888,0.3415 0.95873,0.35863 2.33912,0.78101 1.38039,0.42239 3.15366,0.70633 1.8137,0.27818 3.9974,-0.0327 1.37493,-0.19571 2.38604,-0.62845 1.05156,-0.43849 1.74507,-1.07357 0.73394,-0.64083 1.02321,-1.50717 0.28926,-0.86634 0.1396,-1.91775 -0.17269,-1.21317 -1.06191,-1.95302 -0.85454,-0.78604 -2.20025,-1.25462 -1.30527,-0.47433 -2.96297,-0.81598 -1.61727,-0.34741 -3.37312,-0.79886 -1.71542,-0.45721 -3.41918,-1.12237 -1.66331,-0.67092 -3.10112,-1.78652 -1.39737,-1.12135 -2.42474,-2.83174 -0.98694,-1.71613 -1.34958,-4.26379 -0.36841,-2.58809 0.33748,-4.87526 0.70013,-2.32761 2.38202,-4.13483 1.68189,-1.80723 4.27042,-3.04212 2.62896,-1.24064 6.02583,-1.72417 1.69844,-0.24176 3.31009,-0.22363 1.6521,0.0124 2.99795,0.19213 1.34585,0.17975 2.29883,0.49794 0.94722,0.27775 1.35722,0.54946 0.44468,0.22551 0.65249,0.52599 0.20205,0.26005 0.34624,0.69336 0.13844,0.39288 0.27098,1.03415 0.16723,0.59507 0.29962,1.52516 0.15542,1.09185 0.1724,1.79083 0.0574,0.69322 -0.0468,1.12063 -0.0638,0.42166 -0.28337,0.61795 -0.22536,0.15586 -0.54887,0.20191 -0.36395,0.0518 -1.18985,-0.24322 -0.83166,-0.33545 -2.07347,-0.65379 -1.20136,-0.32409 -2.79561,-0.50974 -1.55955,-0.23184 -3.50062,0.0445 -1.37493,0.19571 -2.3456,0.62269 -0.97068,0.42698 -1.54287,1.04479 -0.5722,0.61781 -0.79209,1.39176 -0.22566,0.73351 -0.11053,1.54229 0.17844,1.25361 1.06767,1.99345 0.88922,0.73985 2.23493,1.20843 1.3457,0.46857 3.00341,0.81022 1.69814,0.3359 3.41356,0.79311 1.75009,0.41101 3.45385,1.07617 1.7442,0.65941 3.182,1.77501 1.43781,1.1156 2.46518,2.82598 1.02162,1.66994 1.37276,4.13671 z"
       style="font-style:normal;font-variant:normal;font-weight:bold;font-stretch:normal;font-size:83.65374756px;line-height:150%;font-family:Calibri;-inkscape-font-specification:'Calibri, Bold';text-align:start;writing-mode:lr-tb;text-anchor:start;fill:url(#linearGradient4181);fill-opacity:1;stroke:#3d2e05;stroke-opacity:1"
       id="path4212" />
  </g>
  <path
     inkscape:connector-curvature="0"
     d="m 490.68158,107.37804 c 0.0164,-0.0113 0.0394,-0.0148 0.0604,-0.014 0.11789,-0.008 0.26166,0.0358 0.32916,0.0934 0.0674,0.0576 0.33471,0.0673 0.59078,0.0328 0.34936,-0.0471 0.57205,0.005 0.90143,0.18367 1.20968,0.65678 1.13698,0.56 1.39648,1.68079 0.13441,0.58054 0.20941,1.22368 0.17063,1.42378 -0.0388,0.20018 -0.0567,0.80086 -0.0409,1.33497 0.0158,0.53407 0.0274,1.28 0.0237,1.65927 -0.007,0.66346 0.11067,2.09805 0.33119,3.99512 0.069,0.59422 0.05,0.91432 -0.069,0.93853 -0.21821,0.0449 -1.14718,-0.14604 -1.16856,-0.2384 -0.008,-0.0362 -0.16296,-0.0259 -0.33603,0.0142 -0.17314,0.0401 -0.40396,0.0246 -0.51568,-0.029 -0.11192,-0.0538 -0.3062,-0.0777 -0.43524,-0.0478 -0.12903,0.0299 -0.24814,0.0274 -0.25552,-0.004 -0.007,-0.0321 -0.24415,-0.10471 -0.53595,-0.16225 -0.46496,-0.0915 -0.54809,-0.15429 -0.62519,-0.502 -0.0455,-0.21884 -0.0369,-0.68146 0.0255,-1.03449 0.0625,-0.35305 0.11302,-0.91762 0.11219,-1.25599 -7.6e-4,-0.33841 0.0386,-0.9782 0.0849,-1.41933 0.10016,-0.95501 0.0768,-1.88178 -0.127,-5.35729 -0.0514,-0.87536 -0.0333,-1.21338 0.0827,-1.29157 z M 485.6939,72.554621 c -0.30832,0.0714 -0.55543,0.16575 -0.54729,0.20092 0.008,0.0353 -0.11156,0.10856 -0.26855,0.1682 -0.15689,0.0599 -0.3589,0.20687 -0.45427,0.32786 -0.0953,0.12101 -0.2653,0.24171 -0.37302,0.26665 -0.10777,0.025 -0.22886,0.13367 -0.26228,0.24095 -0.0334,0.10729 -0.16207,0.21775 -0.29255,0.24796 -0.13046,0.0302 -0.23234,0.0956 -0.22055,0.14652 0.0119,0.0512 -0.17085,0.21313 -0.41476,0.3611 -0.24393,0.14793 -0.58821,0.47439 -0.76447,0.72841 -0.31048,0.44751 -0.61279,0.65075 -0.66169,0.43956 -0.0336,-0.1453 -0.23375,-0.0881 -0.43582,0.13273 -0.0944,0.10304 -0.23393,0.19253 -0.31657,0.18999 -0.0825,-0.003 -0.36782,0.14305 -0.63466,0.32728 -1.09648,0.75662 -1.52648,1.06445 -1.85811,1.36332 -0.19196,0.17301 -0.56807,0.49385 -0.84423,0.70443 -0.85502,0.6518 -1.33441,1.09133 -1.78819,1.66527 -0.86915,1.09919 -2.55561,3.366002 -2.71747,3.651179 -0.0911,0.160512 -0.50001,0.772514 -0.90572,1.354888 -0.4057,0.58243 -0.72408,1.086016 -0.71618,1.120144 0.008,0.03408 -0.0389,0.08063 -0.10213,0.108421 -0.17193,0.07571 -1.13317,1.685298 -1.37581,2.301388 -0.069,0.17535 -0.2116,0.45043 -0.31388,0.61349 -0.19377,0.30887 -0.70043,1.32106 -0.79719,1.59483 -0.0306,0.0868 -0.16201,0.32462 -0.29228,0.52366 -0.13021,0.19904 -0.22384,0.40712 -0.21104,0.4624 0.0128,0.0554 -0.0306,0.18071 -0.0927,0.2866 -0.0619,0.10578 -0.18841,0.409 -0.27981,0.66913 -0.0914,0.26018 -0.26084,0.7253 -0.37635,1.03086 -0.11549,0.30557 -0.24511,0.65836 -0.29444,0.78923 -0.11888,0.3158 -0.46226,2.07724 -0.53382,2.73213 -0.36609,3.350929 0.23192,6.363319 1.53639,7.734849 0.40011,0.42069 0.39854,0.39547 0.0166,0.4839 -0.17621,0.0408 -0.31367,0.11078 -0.30575,0.14494 0.008,0.0342 -0.27246,0.15284 -0.61847,0.25991 -0.34605,0.107 -0.65959,0.22236 -0.70131,0.2684 -0.0415,0.0462 -0.19263,0.11875 -0.3259,0.1496 -0.13318,0.0308 -0.33072,0.12272 -0.44973,0.21015 -0.11902,0.0874 -0.39676,0.19789 -0.61072,0.24743 -0.21397,0.0495 -0.38491,0.1236 -0.37615,0.16142 0.01,0.0418 -0.64993,0.22472 -1.66442,0.45961 -1.0145,0.23489 -1.68745,0.36006 -1.69703,0.31867 -0.0211,-0.0912 -0.61442,0.0459 -0.66422,0.15379 -0.0224,0.0482 -0.87968,0.29483 -1.99724,0.57912 -1.07276,0.2731 -1.93659,0.52056 -1.92916,0.55268 0.0246,0.10621 -1.69082,0.4662 -1.93159,0.40485 -0.16415,-0.0419 -0.56626,0.0251 -1.50271,0.2419 -0.91824,0.2126 -1.34474,0.27319 -1.53523,0.2389 -0.17541,-0.0316 -0.5803,0.0283 -1.21087,0.17434 -0.52231,0.12092 -0.96103,0.19995 -0.96778,0.17078 -0.0128,-0.0552 -1.23322,-0.0219 -1.50675,0.0414 -0.0875,0.0203 -0.16644,0.0139 -0.17501,-0.0231 -0.008,-0.0367 -0.38677,-0.0112 -0.83308,0.0657 -0.44629,0.077 -0.81142,0.11363 -0.8184,0.0835 -0.007,-0.0301 -0.42286,0.0202 -0.92904,0.10908 -0.66118,0.11606 -1.03799,0.14062 -1.31706,0.0821 -0.21358,-0.0447 -0.46129,-0.0628 -0.55055,-0.0422 -0.0892,0.0207 -0.26275,0.0147 -0.38559,-0.0168 -0.12274,-0.0313 -0.42628,-0.0179 -0.6798,0.0408 -0.25349,0.0587 -0.46825,0.0842 -0.47691,0.0468 -0.009,-0.0376 -0.12194,-0.046 -0.2478,-0.0169 -0.1259,0.0292 -0.33361,0.0256 -0.46612,0.002 -0.13248,-0.0239 -0.42053,-0.0211 -0.63647,-10e-4 -0.39721,0.0368 -0.69582,0.0247 -1.08406,-0.0565 -0.11725,-0.0245 -0.31108,-0.0708 -0.43444,-0.0903 -0.90393,-0.14155 -1.7809,-0.30545 -2.16293,-0.41115 -0.24793,-0.0686 -0.57282,-0.14936 -0.73105,-0.18064 -0.47628,-0.0941 -2.67539,-0.89207 -2.83621,-1.0293 -0.0823,-0.0702 -0.29028,-0.15628 -0.45775,-0.19091 -0.16744,-0.0346 -0.42744,-0.1209 -0.57543,-0.19546 -0.14796,-0.0746 -0.3129,-0.14097 -0.37334,-0.14692 -0.0603,-0.006 -0.36547,-0.20989 -0.67627,-0.44778 -0.31076,-0.23787 -0.63607,-0.43596 -0.71653,-0.43854 -0.0804,-0.002 -0.16572,-0.0747 -0.18514,-0.15858 -0.0194,-0.0839 -0.15158,-0.18892 -0.29907,-0.23829 -0.14765,-0.0493 -0.37021,-0.20644 -0.49501,-0.35196 -0.37827,-0.4409 -1.38836,-0.97349 -1.70332,-0.89921 -0.41986,0.0972 -0.58251,0.21033 -0.87762,0.60613 -0.27418,0.36767 -0.32579,1.33658 -0.11081,2.04031 0.19664,0.64404 1.28169,2.07959 1.74151,2.30075 0.11695,0.0563 0.22832,0.16176 0.24641,0.23989 0.0181,0.0781 0.10771,0.13405 0.19598,0.11361 0.0881,-0.0204 0.16852,0.0424 0.1929,0.14621 0.0244,0.10384 0.23059,0.26316 0.45244,0.35124 0.22185,0.088 0.64366,0.29024 0.94185,0.44989 0.71699,0.38392 2.58415,1.11951 2.74256,1.08283 0.0688,-0.0159 0.35767,0.0864 0.64516,0.22177 0.28746,0.13539 0.63487,0.23457 0.76287,0.22633 0.12791,-0.009 0.23861,0.0231 0.247,0.0594 0.0206,0.0889 1.44757,0.30315 3.20903,0.48698 0.20448,0.0213 0.44984,0.0539 0.54747,0.0748 0.63671,0.13603 1.15082,0.22247 1.48685,0.23892 0.21305,0.0104 0.48957,0.0277 0.61558,0.0483 0.12602,0.0207 0.37497,0.009 0.5544,-0.0329 0.17938,-0.0415 0.41398,-0.027 0.52578,0.0267 0.11182,0.0538 0.35029,0.0567 0.5234,0.0166 0.17311,-0.0401 0.31956,-0.0396 0.32832,-0.002 0.009,0.0376 0.16212,0.0366 0.33834,-0.004 0.17619,-0.0408 0.32866,-0.046 0.33604,-0.0142 0.007,0.0321 0.34381,0.0374 0.75647,0.0157 0.41271,-0.0216 0.75988,-0.0155 0.76656,0.0133 0.007,0.0291 0.11578,0.007 0.24385,-0.0459 0.12825,-0.0528 0.3322,-0.0844 0.4498,-0.0724 0.11776,0.0124 0.59584,-0.0388 1.06456,-0.11925 0.46869,-0.0805 0.86558,-0.10849 0.87569,-0.0648 0.0103,0.0444 0.0806,0.0104 0.15406,-0.0674 0.0722,-0.0764 0.13631,-0.0983 0.14639,-0.0548 0.01,0.0428 0.20477,0.0548 0.43052,0.0275 0.22566,-0.0276 0.41959,-0.0197 0.42818,0.0174 0.008,0.0367 0.23508,0.0198 0.49939,-0.0414 0.26431,-0.0612 0.48864,-0.0879 0.49707,-0.0515 0.008,0.0362 0.28365,0.0263 0.61942,-0.0267 0.33579,-0.0531 0.76535,-0.10588 0.9492,-0.11375 0.48183,-0.0206 2.01697,-0.29369 2.7197,-0.48141 0.33122,-0.0887 0.72552,-0.14439 0.87179,-0.1276 0.15049,0.0173 0.86803,-0.0921 1.65831,-0.25672 0.76827,-0.16077 1.44335,-0.27355 1.50044,-0.2519 0.17906,0.0677 1.93801,-0.33983 2.06313,-0.47768 0.0806,-0.0889 0.7311,-0.27785 2.365,-0.68548 1.24043,-0.30975 2.24857,-0.5927 2.24112,-0.62491 -0.007,-0.0321 0.51872,-0.17329 1.1658,-0.32311 0.97314,-0.22531 1.21328,-0.30929 1.42674,-0.47862 0.14193,-0.11255 0.43508,-0.24916 0.64164,-0.29699 0.20665,-0.0478 0.36481,-0.11895 0.35608,-0.15668 -0.009,-0.0376 0.2048,-0.11105 0.46911,-0.17225 0.26429,-0.0612 0.46544,-0.14216 0.45669,-0.17998 -0.023,-0.0994 0.58354,-0.23181 0.70681,-0.15312 0.0745,0.0476 0.14755,0.0248 0.25459,-0.0911 0.0823,-0.0887 0.3198,-0.20126 0.53563,-0.25124 0.21587,-0.05 0.38638,-0.11746 0.37855,-0.15127 -0.008,-0.0337 0.1649,-0.12897 0.38695,-0.20629 0.0184,-0.01 0.0474,-0.0185 0.0681,-0.0263 l 0.42376,0.27309 c -0.16992,0.12872 -0.14372,0.18608 0.18218,0.46673 0.2098,0.1806 0.65841,0.42816 0.9954,0.54369 0.33702,0.11551 0.91974,0.3995 1.302,0.63163 0.61935,0.3761 1.20309,0.58032 1.46692,0.51924 0.0504,-0.0117 0.21242,0.008 0.35775,0.0339 0.14528,0.026 0.40695,0.0118 0.57682,-0.0275 0.1699,-0.0393 0.31954,-0.0396 0.32828,-0.002 0.009,0.0376 0.23053,0.0209 0.4994,-0.0414 0.44846,-0.10384 1.75921,-0.15772 2.00611,-0.0828 0.0575,0.0178 0.58506,-0.0645 1.16831,-0.17516 l 1.05598,-0.20211 0.28661,0.23053 c 0.32321,0.26364 0.86526,2.19738 0.79732,2.84804 -0.0227,0.21741 0.0601,1.2196 0.1867,2.22596 0.13371,1.06409 0.17849,2.15678 0.10715,2.61546 -0.17038,1.0961 0.14287,2.21733 0.69331,2.4904 0.22141,0.10994 0.48245,0.30238 0.57636,0.42858 0.0939,0.12623 0.23625,0.231 0.31919,0.23366 0.0828,0.002 0.16223,0.0596 0.17814,0.12833 0.0492,0.21232 1.02505,0.73414 1.59643,0.84982 0.30701,0.0622 0.70787,0.0694 0.91675,0.021 0.20299,-0.047 0.37997,-0.0535 0.3887,-0.0157 0.0209,0.0902 0.61495,-0.0473 0.66425,-0.15379 0.0207,-0.0451 0.31855,-0.17046 0.6587,-0.26921 0.47197,-0.13728 0.75193,-0.16845 1.18535,-0.14722 0.31294,0.0178 0.57946,0.0755 0.58929,0.11798 0.0338,0.12377 2.39683,0.52798 3.34542,0.57217 0.38305,0.0178 0.47313,-0.004 0.85773,-0.18807 0.5854,-0.28036 0.65901,-0.28673 0.83619,-0.0981 0.221,0.23518 0.86573,0.46753 1.12301,0.40796 0.1209,-0.028 0.40231,-0.013 0.63107,0.0236 0.22878,0.0367 0.64207,0.0976 0.92227,0.13633 0.64648,0.0894 1.3209,0.25522 1.33976,0.33666 0.008,0.0341 0.29926,0.13178 0.65288,0.2094 0.45118,0.0989 0.77267,0.10734 1.0794,0.0363 0.24038,-0.0557 0.55628,-0.0712 0.70222,-0.0354 0.26957,0.0663 1.12336,0.59249 1.15037,0.70918 0.022,0.0949 1.02281,0.64363 1.23859,0.67819 0.10234,0.016 0.3806,0.0355 0.61558,0.0483 0.5823,0.0316 0.68979,-0.0198 0.85455,-0.43117 0.21375,-0.53352 -0.0135,-1.27773 -0.50222,-1.66507 -0.52997,-0.42016 -1.39169,-0.88555 -1.67081,-0.89632 -0.2344,-0.009 -0.34133,-0.27787 -0.29935,-0.78952 l 0.0307,-0.32521 0.53658,-0.0182 c 0.6765,-0.0142 1.70588,0.52313 2.11075,1.10176 0.0805,0.11476 0.49562,0.32039 0.92173,0.45467 0.69647,0.21945 0.83199,0.22778 1.36131,0.109 0.51957,-0.11465 0.59201,-0.15756 0.64007,-0.34971 0.0299,-0.1197 0.038,-0.31802 0.0129,-0.44833 -0.025,-0.13031 -0.0853,-0.46495 -0.13757,-0.73161 -0.18801,-0.96054 -2.09547,-2.15517 -3.07614,-1.92811 -0.15136,0.035 -0.28687,0.0433 -0.29348,0.0148 -0.0228,-0.0986 -2.43306,-0.52226 -2.78549,-0.48971 -0.19481,0.0178 -0.36139,-0.004 -0.37015,-0.0415 -0.009,-0.0376 -0.29389,-0.10794 -0.63116,-0.16134 -0.57821,-0.0915 -0.61642,-0.12143 -0.70732,-0.53611 -0.051,-0.24237 -0.0776,-0.67875 -0.0533,-0.96315 0.20866,-2.44925 0.20926,-2.71265 0.10583,-5.63385 -0.0582,-1.64545 -0.10812,-3.58456 -0.11632,-4.53269 -0.004,-0.41737 -0.0177,-1.04763 -0.0381,-1.40137 -0.0204,-0.35378 -0.0419,-0.7403 -0.0401,-0.86023 0.002,-0.11997 -0.14051,-0.90436 -0.31789,-1.73964 -0.39608,-1.86585 -0.70957,-2.30867 -2.28654,-3.234899 -0.29181,-0.17138 -0.78429,-0.5177 -1.09925,-0.76347 -0.31491,-0.24563 -0.70272,-0.50108 -0.86219,-0.56377 -0.44731,-0.17581 -1.92632,-0.5979 -2.067,-0.59247 -0.0691,0.002 -0.13358,-0.0274 -0.14405,-0.0727 -0.0105,-0.0454 -0.1837,-0.10033 -0.38651,-0.112 -0.20272,-0.0115 -0.50035,-0.0524 -0.65744,-0.0917 -0.15708,-0.0393 -0.42127,-0.0938 -0.59162,-0.12808 -0.17035,-0.0342 -0.31555,-0.0806 -0.32139,-0.10581 -0.0111,-0.048 -0.48151,-0.16186 -1.73472,-0.39368 -0.41215,-0.0762 -0.75831,-0.16092 -0.76593,-0.1938 -0.008,-0.0331 -0.18189,-0.069 -0.38949,-0.0795 -0.50957,-0.0258 -1.1758,-0.14318 -1.70368,-0.30539 -0.2398,-0.0737 -0.53616,-0.10917 -0.65511,-0.0816 -0.1189,0.0275 -0.21947,0.0138 -0.22763,-0.0215 -0.008,-0.0352 -0.17192,-0.0497 -0.36786,-0.0315 -0.19599,0.018 -0.53799,-0.003 -0.75339,-0.0483 -0.21545,-0.045 -0.53696,-0.0453 -0.72165,-0.003 -0.39027,0.0904 -1.0542,-0.0191 -1.09191,-0.18194 -0.0143,-0.0616 0.0721,-0.37812 0.18764,-0.70088 0.68719,-1.92008 0.71491,-2.33111 0.31403,-4.78079 -0.22958,-1.40346 -0.17391,-2.93784 0.13445,-3.54088 0.113,-0.220887 0.26567,-0.32861 0.58894,-0.433279 0.23955,-0.07746 0.42831,-0.165239 0.42184,-0.19317 -0.006,-0.02756 0.36383,-0.155197 0.81434,-0.284046 0.45051,-0.128933 0.85966,-0.288042 0.91574,-0.349934 0.0647,-0.07118 0.65793,-0.249927 1.61485,-0.490435 1.39483,-0.35096 1.52421,-0.372735 1.71633,-0.280837 0.13995,0.06731 0.35487,0.05966 0.66434,-0.0159 0.57624,-0.140912 1.04017,-0.06464 1.6293,0.259023 0.66381,0.364636 0.81329,0.426631 0.95036,0.394896 0.0672,-0.01556 0.13067,0.01486 0.14174,0.06268 0.0111,0.04799 0.22568,0.159567 0.48178,0.248897 0.40148,0.140152 0.55619,0.136407 1.08482,0.01401 0.44446,-0.102907 0.70877,-0.209779 0.97682,-0.4065 l 0.37072,-0.276639 -0.38421,-1.247146 -0.3841,-1.24711 0.65415,-0.15145 c 0.3677,-0.0851 0.77283,-0.12349 0.92138,-0.0966 0.28748,0.0516 1.0898,-0.10194 1.06606,-0.20445 -0.008,-0.0347 0.1989,-0.13646 0.45744,-0.22261 0.25848,-0.0862 0.46548,-0.18775 0.45745,-0.22246 -0.008,-0.0347 0.16835,-0.10261 0.38861,-0.15361 0.22021,-0.051 0.39788,-0.0675 0.40645,-0.0305 0.009,0.0373 0.31406,0.0289 0.67206,-0.0284 0.35808,-0.0571 0.65978,-0.0814 0.66741,-0.0485 0.0193,0.0832 0.93231,-0.13766 1.03428,-0.25 0.18231,-0.2011 0.86074,-0.27024 1.1598,-0.12009 0.16301,0.0818 0.34729,0.13162 0.41897,0.11502 0.28769,-0.0666 0.5876,0.26298 0.94151,1.0438 0.39055,0.861641 0.75628,1.209464 1.93787,1.820509 0.54607,0.282489 0.93124,0.358269 0.88903,0.17595 -0.009,-0.03764 0.11342,-0.100504 0.27553,-0.138038 0.4192,-0.09706 0.63889,-0.628892 0.41349,-1.007657 -0.0973,-0.163665 -0.44235,-0.434774 -0.76623,-0.607334 -0.51773,-0.27571 -0.58864,-0.3585 -0.56417,-0.6964 0.0261,-0.3603 0.057,-0.39433 0.45414,-0.4657 0.3559,-0.0642 0.48998,-0.0226 0.8651,0.25569 0.40264,0.29872 0.4792,0.46916 0.78408,1.737734 0.32745,1.36243 0.59754,1.81939 0.75899,1.308794 l 0.0642,-0.226945 0.19213,0.188764 c 0.10461,0.106913 0.29245,0.16561 0.42365,0.135233 0.12961,-0.03001 0.23325,-0.07712 0.22985,-0.106408 -0.002,-0.02967 0.0787,-0.301348 0.1885,-0.605598 0.14131,-0.391453 0.14927,-0.775018 0.0254,-1.310164 -0.2484,-1.09502 -0.9165,-2.68304 -1.29451,-3.0722 -0.39624,-0.40798 -2.10828,-1.06028 -2.62866,-1.00314 -0.1997,0.0215 -0.58649,-0.0332 -0.86498,-0.11784 -0.27848,-0.0846 -0.55704,-0.15818 -0.62114,-0.16371 -0.0639,-0.005 -0.19114,-0.0837 -0.27262,-0.17014 -0.0816,-0.0864 -0.30221,-0.18375 -0.49732,-0.22418 -0.19501,-0.0404 -0.53617,-0.23324 -0.75674,-0.4292 -0.76983,-0.68381 -1.83118,-1.4558 -2.02664,-1.47121 -0.21492,-0.0171 -1.50082,-0.68694 -1.74823,-0.9101 -0.1344,-0.12132 -0.30848,-0.20423 -0.38262,-0.18707 -0.0742,0.0172 -0.14104,-0.0135 -0.1542,-0.0703 -0.0131,-0.0566 -0.0963,-0.0837 -0.18432,-0.0633 -0.0881,0.0204 -0.17354,-0.0168 -0.18667,-0.0735 -0.0131,-0.0566 -0.0761,-0.0884 -0.14406,-0.0727 -0.068,0.0157 -0.28113,-0.0387 -0.46391,-0.12589 -0.37381,-0.17832 -1.50936,-0.43517 -1.72228,-0.38587 -0.0766,0.0177 -0.19837,-0.0122 -0.27183,-0.075 -0.0734,-0.0627 -0.21787,-0.098 -0.3245,-0.0733 -0.10662,0.0247 -0.33003,0.019 -0.4909,-0.0136 -0.34197,-0.069 -0.58487,-0.0911 -1.19328,-0.11604 -0.53119,-0.0217 -0.79192,-0.0643 -1.36912,-0.23435 -0.23905,-0.0705 -0.56253,-0.10315 -0.72557,-0.0654 -0.16305,0.0378 -0.30961,0.0368 -0.31823,-4.3e-4 -0.008,-0.0366 -0.20247,-0.0449 -0.42822,-0.0175 -0.22561,0.0276 -0.40624,0.0314 -0.41346,2.7e-4 -0.007,-0.0312 -0.17763,-0.0476 -0.37787,-0.0292 -0.41515,0.0384 -0.81964,-0.0136 -0.84252,-0.11241 -0.009,-0.0373 -0.25457,-0.12583 -0.54291,-0.19238 -1.18362,-0.27313 -1.43649,-0.3422 -1.45365,-0.41631 -0.01,-0.0427 -0.31182,-0.10208 -0.66676,-0.13192 -0.35501,-0.0298 -0.70799,-0.081 -0.78987,-0.11406 -0.0818,-0.0332 -0.25553,-0.0363 -0.38329,-0.007 -0.12775,0.0296 -0.239,0.0209 -0.24775,-0.0169 -0.009,-0.0376 -0.12565,-0.0451 -0.25786,-0.0145 -0.13217,0.0306 -0.23398,0.0886 -0.22523,0.12636 0.009,0.0376 -0.083,0.0934 -0.21518,0.12403 -0.13217,0.0306 -0.2491,0.0233 -0.25785,-0.0145 -0.009,-0.0376 -0.27154,-0.0114 -0.57989,0.0601 z"
     style="fill:#262303;fill-opacity:1"
     id="path4075-1" />
  <path
     inkscape:connector-curvature="0"
     id="path3976-5"
     d="m 126.59777,44.033911 c -0.0703,0.0784 -0.35826,0.28871 -0.63976,0.46757 -0.28143,0.17891 -0.64249,0.43636 -0.80232,0.57221 -0.29101,0.24742 -0.61822,0.457 -1.32473,0.84855 -0.48574,0.26917 -1.28235,0.75614 -1.63612,1.00014 -0.27221,0.18774 -0.70662,0.4604 -1.25813,0.78971 -0.15468,0.0923 -0.56951,0.32163 -0.92195,0.50951 -0.35238,0.18789 -0.74137,0.42638 -0.86444,0.53001 -0.6453,0.54333 -0.84402,0.61381 -0.83318,0.29556 0.002,-0.0682 -0.0886,-0.18601 -0.20197,-0.26214 -0.25248,-0.16953 -0.83894,-0.9755 -0.89417,-1.22888 -0.0222,-0.10171 -0.0619,-0.18029 -0.0878,-0.17464 -0.0262,0.006 -0.11724,-0.23572 -0.20241,-0.5365 -0.0854,-0.30071 -0.17229,-0.54305 -0.1934,-0.53845 -0.0211,0.005 -0.10125,-0.21016 -0.17815,-0.47727 -0.0771,-0.26704 -0.16092,-0.48101 -0.18659,-0.47542 -0.0257,0.006 -0.11667,-0.23585 -0.20184,-0.53661 -0.0854,-0.30072 -0.17514,-0.54243 -0.19978,-0.53706 -0.0248,0.006 -0.0994,-0.23962 -0.1658,-0.54447 -0.0665,-0.30485 -0.14377,-0.54929 -0.17149,-0.54324 -0.0278,0.006 -0.0633,-0.0474 -0.0788,-0.11896 -0.0492,-0.22566 -0.46988,-1.18073 -0.51564,-1.17076 -0.0238,0.005 -0.0883,-0.12589 -0.14265,-0.29147 -0.0541,-0.16563 -0.1211,-0.29617 -0.14848,-0.29019 -0.0275,0.006 -0.0789,-0.12375 -0.1148,-0.2883 -0.0358,-0.16453 -0.11757,-0.37482 -0.18136,-0.46737 -0.064,-0.0925 -0.1281,-0.22297 -0.14269,-0.28991 -0.0146,-0.0669 -0.049,-0.13618 -0.0765,-0.15383 -0.0273,-0.0179 -0.21634,-0.32748 -0.41977,-0.68844 -0.20347,-0.36095 -0.42014,-0.68014 -0.48153,-0.7093 -0.0614,-0.0291 -0.11467,-0.0923 -0.11846,-0.14044 -0.0105,-0.1365 -0.3003,-0.51591 -0.54786,-0.71794 -0.12357,-0.1009 -0.33898,-0.33033 -0.47855,-0.50993 -0.31724,-0.40808 -1.54899,-1.36968 -1.97572,-1.54226 -0.32917,-0.13319 -1.23652,-0.33287 -1.93461,-0.4257 -0.94236,-0.12534 -2.93839,0.53815 -3.81488,1.26794 -0.18495,0.15398 -0.5388,0.44459 -0.78636,0.64575 -0.73647,0.59862 -0.79855,0.65267 -1.04622,0.91121 -0.13057,0.13627 -0.28691,0.2939 -0.34744,0.35025 -0.0605,0.0563 -0.1459,0.15689 -0.18965,0.2234 -0.0438,0.0666 -0.16633,0.21523 -0.27233,0.33052 -0.10592,0.11526 -0.28843,0.37187 -0.40547,0.57018 -0.11699,0.19829 -0.30062,0.42981 -0.40809,0.5145 -0.10756,0.0847 -0.31027,0.35725 -0.45068,0.60573 -0.14041,0.24844 -0.35838,0.63079 -0.48437,0.84965 -0.125977,0.21884 -0.263897,0.57968 -0.306517,0.80188 -0.0425,0.22216 -0.14869,0.50011 -0.23578,0.61765 -0.0871,0.11753 -0.19163,0.37257 -0.23228,0.56674 -0.15591,0.74397 -0.17829,0.82738 -0.22484,0.83754 -0.0266,0.006 -0.0765,0.14918 -0.11129,0.31873 -0.0347,0.16955 -0.10755,0.46121 -0.16167,0.64811 -0.0542,0.18691 -0.10568,0.39951 -0.11467,0.47241 -0.0387,0.31814 -0.0766,0.72313 -0.0926,0.98788 -0.009,0.15725 -0.0333,0.4146 -0.0531,0.57197 -0.0475,0.37873 -0.0232,0.74646 0.0872,1.3174 0.1037,0.53596 0.29895,1.00561 0.40828,0.98177 0.041,-0.009 0.0896,0.0546 0.10837,0.14123 0.0189,0.0865 0.0938,0.23356 0.16624,0.32673 0.41568,0.53368 0.965507,0.67604 1.864357,0.48275 1.3139,-0.28273 2.16006,-1.1647 2.44757,-2.55198 0.018,-0.0863 0.0509,-0.18054 0.0733,-0.20954 0.0223,-0.029 0.009,-0.26266 -0.0297,-0.51933 -0.0591,-0.39001 -0.10358,-0.51368 -0.26853,-0.75374 -0.10895,-0.15787 -0.20978,-0.33993 -0.22387,-0.40458 -0.0141,-0.0646 -0.0599,-0.11012 -0.10148,-0.10101 -0.0419,0.009 -0.085,-0.0259 -0.0962,-0.0778 -0.026,-0.11953 -0.57383,-0.42128 -0.71062,-0.39147 -0.23005,0.0501 -0.29411,-0.0687 -0.22313,-0.4145 0.0368,-0.17907 0.0859,-0.32976 0.10942,-0.33486 0.0423,-0.009 0.0841,-0.14934 0.25326,-0.84479 0.20013,-0.82269 1.00526,-2.52622 1.21561,-2.57208 0.0467,-0.0105 0.0959,-0.0709 0.10966,-0.13496 0.0307,-0.14408 0.97323,-1.26233 1.08425,-1.28652 0.0445,-0.009 0.12205,-0.0787 0.1727,-0.15333 0.15034,-0.22152 0.65187,-0.54168 1.23886,-0.79086 0.73895,-0.31367 1.74579,-0.35761 2.43508,-0.10615 0.85337,0.3112 1.20779,0.63985 2.13091,1.97574 0.70742,1.02375 0.82628,1.2337 0.96175,1.69791 0.0847,0.29143 0.19198,0.61091 0.23763,0.71014 0.0457,0.0993 0.15439,0.44063 0.24154,0.7587 0.0868,0.31818 0.17992,0.57366 0.20604,0.56796 0.0262,-0.006 0.0656,0.0728 0.0877,0.17441 0.0222,0.1016 0.06,0.18046 0.0843,0.17517 0.0243,-0.006 0.11963,0.26423 0.21184,0.59892 0.0924,0.33471 0.188,0.60416 0.21265,0.59878 0.0248,-0.006 0.096,0.15326 0.1587,0.35248 0.0624,0.19931 0.13225,0.35826 0.15484,0.35333 0.0223,-0.005 0.0982,0.1818 0.16814,0.41493 0.0697,0.23318 0.14886,0.41914 0.17545,0.41333 0.0266,-0.006 0.0705,0.0918 0.0979,0.217 0.0273,0.12512 0.12299,0.34538 0.2126,0.48948 0.0897,0.14411 0.17723,0.32665 0.19446,0.40567 0.0173,0.0791 0.11444,0.2518 0.2161,0.38389 0.10159,0.13214 0.20908,0.35139 0.2387,0.48734 0.0297,0.13594 0.0754,0.24245 0.10101,0.23688 0.0257,-0.006 0.0904,0.11094 0.14325,0.25907 0.0527,0.14821 0.17649,0.37972 0.27472,0.51458 0.0982,0.13482 0.19071,0.30136 0.20567,0.36995 0.015,0.0687 0.0882,0.17623 0.16269,0.23918 0.12835,0.10849 0.38797,0.42107 0.61092,0.73558 0.10148,0.14308 0.15898,0.50997 0.0828,0.52659 -0.0955,0.0208 -0.43035,0.93767 -0.39751,1.08831 0.0199,0.0909 -0.0808,0.36753 -0.22361,0.61476 -0.43806,0.75854 -0.52493,0.93005 -0.52157,1.02977 0.002,0.0528 -0.0259,0.10253 -0.0618,0.11023 -0.036,0.008 -0.17463,0.31896 -0.30841,0.69142 -0.21991,0.61232 -0.31625,0.9656 -0.52016,1.90845 -0.0363,0.16758 -0.0967,0.31138 -0.13438,0.31961 -0.0373,0.008 -0.0875,0.12275 -0.11082,0.25454 -0.0232,0.13176 -0.0967,0.42357 -0.1632,0.64844 -0.18803,0.63628 -0.19367,0.65927 -0.26668,1.08576 -0.0378,0.22114 -0.0478,0.4991 -0.0221,0.61768 0.0257,0.11856 0.0267,0.21996 0.002,0.22536 -0.0243,0.006 0.006,0.318 0.0683,0.69475 0.0618,0.37681 0.0947,0.68898 0.0724,0.69387 -0.0223,0.005 -0.009,0.22022 0.0301,0.47858 0.0389,0.25835 0.0426,0.55913 0.008,0.66835 -0.0342,0.10919 -0.0432,0.34905 -0.0202,0.53296 0.0231,0.18391 0.002,0.41929 -0.0468,0.52307 -0.0488,0.10369 -0.0744,0.25469 -0.0568,0.33538 0.0408,0.18669 -0.10195,1.11519 -0.17373,1.13083 -0.0297,0.007 -0.0419,0.0673 -0.0271,0.13494 0.0148,0.0677 2.7e-4,0.12897 -0.0319,0.136 -0.12241,0.0267 -0.38485,0.89408 -0.32059,1.0594 0.0391,0.10171 0.0237,0.23403 -0.0416,0.34335 -0.0583,0.0979 -0.11059,0.21133 -0.11608,0.25231 -0.0135,0.0981 -0.76135,1.1203 -1.0611,1.45058 -0.12924,0.14235 -0.31829,0.36847 -0.42023,0.50248 -0.22183,0.29178 -0.65955,0.75808 -1.13925,1.21362 -0.1931,0.18339 -0.47664,0.46832 -0.63009,0.63315 -0.15346,0.16483 -0.42333,0.4031 -0.59975,0.52946 -0.17639,0.12639 -0.58084,0.45808 -0.89882,0.73717 -0.90679,0.79603 -0.95663,0.82875 -2.43283,1.5979 -0.58864,0.30673 -1.16161,0.63093 -1.2732,0.72046 -0.11163,0.0896 -0.34693,0.26433 -0.52293,0.38847 -0.34457,0.24301 -0.74577,0.839 -0.7015,1.0421 0.015,0.0686 -0.006,0.1318 -0.0451,0.14047 -0.20248,0.0442 -0.065,1.2061 0.18564,1.56922 0.12571,0.18189 0.20518,0.4987 0.14419,0.57484 -0.0232,0.0293 -0.009,0.27729 0.0316,0.55109 0.0408,0.2738 0.06,0.57813 0.0427,0.67629 -0.0172,0.0982 -0.0155,0.25171 0.004,0.34125 0.0195,0.0896 0.009,0.20109 -0.0233,0.24787 -0.10779,0.15606 -0.3593,1.12821 -0.33013,1.276096 0.0716,0.361471 -0.0476,0.563998 -0.85236,1.449939 -0.22527,0.248034 -0.4183,0.674901 -0.2928,0.647529 0.11152,-0.02429 0.11397,0.227493 0.004,0.333363 -0.13463,0.128782 -0.0972,0.328261 0.11269,0.596906 l -1.4e-4,2.4e-5 c 0.30124,0.386754 1.46446,-0.149312 1.56557,-0.721519 0.0199,-0.112457 0.10312,-0.338794 0.18501,-0.502772 0.0819,-0.163967 0.17241,-0.414045 0.20114,-0.555707 0.0628,-0.309004 0.17723,-0.364473 0.19308,-0.09354 0.006,0.105683 -0.0359,0.237303 -0.0935,0.29241 -0.0577,0.05512 -0.0932,0.153609 -0.0789,0.21884 0.0143,0.06528 0.009,0.209218 -0.009,0.319911 -0.05,0.283173 0.0687,0.770343 0.21863,0.89707 0.28445,0.240432 1.05301,-0.2022 1.08563,-0.62519 0.004,-0.0494 0.049,-0.139198 0.10066,-0.199618 0.0515,-0.06049 0.15231,-0.436011 0.2239,-0.834618 l 0.11117,-1.054672 0.0743,-0.403263 c 0.0408,-0.22179 0.0598,-0.47269 0.0422,-0.55755 -0.0185,-0.0847 -0.0117,-0.15886 0.0149,-0.16454 0.0257,-0.006 0.0392,-0.11012 0.0293,-0.23219 -0.009,-0.12205 0.007,-0.40727 0.0376,-0.63385 0.0423,-0.314289 0.11071,-0.446089 0.28881,-0.556059 0.1284,-0.0793 0.27369,-0.17833 0.32281,-0.22017 0.16585,-0.14108 0.26094,0.0507 0.26863,0.541359 0.004,0.24273 -0.008,0.48351 -0.0262,0.53503 -0.0181,0.0515 0.0304,0.43289 0.10802,0.8474 0.0776,0.41448 0.12092,0.758037 0.0965,0.763362 -0.0243,0.0058 -0.0325,0.06516 -0.0176,0.132881 0.0147,0.06773 0.0526,0.117582 0.0841,0.110704 0.0315,-0.007 0.12317,0.09342 0.20378,0.222893 0.11491,0.184554 0.23111,0.23262 0.53857,0.222635 0.37417,-0.01214 0.39694,-0.03083 0.49752,-0.408031 0.058,-0.217403 0.0856,-0.486364 0.0613,-0.597664 -0.0243,-0.11129 -0.0168,-0.24174 0.0164,-0.28981 0.0334,-0.0481 0.0358,-0.20002 0.006,-0.33765 -0.03,-0.13762 -0.0302,-0.25551 -3.5e-4,-0.26204 0.0642,-0.014 0.26577,0.2646 0.29782,0.41162 0.0124,0.0566 0.11316,0.30012 0.22396,0.54102 0.20232,0.277825 0.40463,0.555661 0.60695,0.833474 0.15292,0.261756 0.20129,0.418377 0.28746,0.930433 0.0606,0.360514 0.0812,0.66619 0.0494,0.73754 -0.0297,0.06691 -0.0306,0.229934 -0.002,0.362044 0.0288,0.132134 0.0294,0.245221 0.002,0.251246 -0.0279,0.0058 -0.0323,0.09412 -0.0105,0.195777 0.0222,0.101596 0.0688,0.17944 0.10393,0.172865 0.0447,-0.0082 0.0498,0.02499 0.0165,0.113741 -0.0822,0.217859 0.19201,0.516731 0.47797,0.521111 0.38827,0.006 0.67481,-0.452259 0.63831,-1.02059 -0.007,-0.109186 0.0632,-0.284142 0.15597,-0.388739 0.15855,-0.178657 0.16315,-0.22524 0.0764,-0.768744 -0.23243,-1.45489 -0.22621,-1.439511 -1.11725,-2.788888 -0.0761,-0.11526 -0.15556,-0.28811 -0.17648,-0.38408 -0.0209,-0.096 -0.0724,-0.19629 -0.1148,-0.22284 -0.0614,-0.0387 -0.0645,-0.053 -0.0156,-0.0718 0.0341,-0.0125 0.0439,-0.10206 0.023,-0.19801 -0.0209,-0.096 -0.0159,-0.208619 0.0117,-0.250389 0.0388,-0.0592 0.0348,-0.075 -0.0202,-0.0708 -0.0725,0.005 -0.0679,-0.12764 0.0223,-0.65076 0.0516,-0.29977 0.54969,-0.59494 1.76825,-1.04795 0.47163,-0.17527 1.0174,-0.40554 1.2128,-0.51158 0.35194,-0.19102 1.9286,-0.87742 2.58849,-1.12699 0.43708,-0.16537 1.46022,-0.74647 1.7205,-0.97729 0.35205,-0.3122 0.98819,-0.68545 1.92563,-1.12987 0.17165,-0.0814 0.45406,-0.26221 0.6276,-0.40186 0.17347,-0.13963 0.40049,-0.27251 0.50435,-0.29522 0.10381,-0.0228 0.27349,-0.11958 0.37679,-0.21533 1.19039,-1.1025 1.61493,-1.55658 1.92736,-2.06137 0.2025,-0.32725 0.43746,-0.68734 0.52214,-0.80022 0.0847,-0.11292 0.14425,-0.24951 0.13243,-0.30363 -0.0118,-0.0542 0.0127,-0.1058 0.0544,-0.11491 0.0419,-0.009 0.0638,-0.0719 0.049,-0.13971 -0.0147,-0.0677 -0.001,-0.12867 0.029,-0.13531 0.0306,-0.007 0.13292,-0.16654 0.22719,-0.35519 0.0942,-0.18867 0.51238,-1.02011 0.92925,-1.84765 0.41689,-0.82756 0.75646,-1.54788 0.75466,-1.60071 -0.002,-0.0528 0.0291,-0.10311 0.0684,-0.11175 0.0396,-0.008 0.0596,-0.071 0.0447,-0.13881 -0.0148,-0.0677 0.007,-0.13063 0.049,-0.13971 0.0419,-0.009 0.0638,-0.0719 0.049,-0.13971 -0.0148,-0.0677 0.006,-0.13023 0.0454,-0.13889 0.0396,-0.008 0.0872,-0.0916 0.10557,-0.1843 0.0179,-0.0926 0.0787,-0.2608 0.13423,-0.37362 0.0555,-0.11281 0.0909,-0.25115 0.0786,-0.30745 -0.0123,-0.0563 6.4e-4,-0.10732 0.0283,-0.11327 0.0279,-0.006 0.0718,-0.10452 0.098,-0.21876 0.16989,-0.74408 0.24389,-1.017 0.27793,-1.02443 0.0862,-0.0188 0.40426,-2.14336 0.40363,-2.69531 -3.4e-4,-0.32555 0.0245,-0.78537 0.0554,-1.02181 0.0308,-0.23646 0.0475,-0.46896 0.0371,-0.51665 -0.0404,-0.18535 0.5568,-1.16147 0.86742,-1.41776 0.41877,-0.34551 0.73934,-0.58663 0.94623,-0.71172 0.09,-0.0544 0.40055,-0.27087 0.68983,-0.48085 0.3769,-0.27359 0.91251,-0.50253 1.88987,-0.80776 0.75017,-0.23425 1.44697,-0.50051 1.54836,-0.5916 0.10148,-0.0911 0.26074,-0.14702 0.35398,-0.12439 0.149,0.0368 0.60859,-0.22248 1.35143,-0.76124 0.1258,-0.0913 0.44834,-0.30654 0.71679,-0.47845 0.26845,-0.17194 0.61303,-0.45032 0.76573,-0.61865 0.15265,-0.16835 0.44937,-0.4349 0.6592,-0.59236 0.20987,-0.15743 0.39203,-0.313 0.40472,-0.34558 0.0592,-0.1517 0.9557,-0.66456 1.09334,-0.62546 0.0855,0.0243 0.23078,0.13448 0.32307,0.24504 0.39877,0.47755 1.52246,1.19157 2.35231,1.4947 0.61029,0.22289 1.72558,0.11874 2.70621,-0.25272 0.50922,-0.19284 0.98249,-0.41607 1.05188,-0.49596 0.0694,-0.0799 0.27552,-0.33464 0.45814,-0.56612 0.18256,-0.23148 0.41354,-0.50657 0.51309,-0.61135 0.0996,-0.10475 0.18869,-0.23368 0.19799,-0.28647 0.009,-0.0527 0.0663,-0.10685 0.12662,-0.11992 0.14206,-0.0309 0.56211,-1.21412 0.58927,-1.65979 0.0117,-0.18927 0.0767,-0.55945 0.14474,-0.82266 0.0682,-0.26317 0.11012,-0.54813 0.0933,-0.6332 -0.0138,-0.0857 -0.0105,-0.15886 0.0126,-0.16403 0.0235,-0.005 0.0737,-0.15847 0.1107,-0.3408 0.064,-0.31184 0.0535,-0.39738 -0.17864,-1.46231 -0.23553,-1.08035 -0.25631,-1.14283 -0.4499,-1.39555 -0.3076,-0.40004 -0.37492,-0.47774 -0.40768,-0.47062 -0.0162,0.004 -0.14391,-0.16616 -0.28313,-0.37727 -0.13924,-0.21108 -0.40986,-0.49852 -0.60138,-0.6387 -0.38952,-0.28504 -0.66491,-0.62615 -0.72382,-0.89638 -0.0216,-0.0989 -0.0621,-0.17497 -0.0899,-0.16892 -0.028,0.006 -0.0697,-0.076 -0.0928,-0.18251 -0.0232,-0.1065 -0.0952,-0.26964 -0.15893,-0.36282 -0.0647,-0.093 -0.11503,-0.22345 -0.11281,-0.28966 0.002,-0.0662 -0.0391,-0.14648 -0.0928,-0.17814 -0.0868,-0.0516 -0.0913,-0.0761 -0.0426,-0.23391 0.0431,-0.14131 0.034,-0.20906 -0.0469,-0.34308 -0.1016,-0.16836 -0.0886,-0.30732 0.13479,-1.45705 0.0309,-0.15892 0.0434,-0.34708 0.028,-0.41813 -0.0337,-0.15458 0.0621,-0.59327 0.13279,-0.60871 0.0273,-0.006 0.0379,-0.0663 0.0231,-0.13407 -0.0147,-0.0677 0.007,-0.13063 0.0487,-0.1398 0.0423,-0.009 0.0521,-0.126 0.0222,-0.26287 -0.0295,-0.1355 -0.0308,-0.25135 -0.004,-0.25737 0.028,-0.006 0.0332,-0.0914 0.0117,-0.18966 -0.0214,-0.0983 -0.012,-0.23901 0.0207,-0.31285 0.0428,-0.0963 0.0183,-0.35513 -0.0869,-0.91729 -0.0807,-0.43068 -0.13373,-0.85575 -0.11795,-0.94457 0.0153,-0.0888 -0.0318,-0.45836 -0.10545,-0.82128 -0.0743,-0.36278 -0.11596,-0.68314 -0.0937,-0.71165 0.0505,-0.0647 -0.0462,-0.52753 -0.10732,-0.51423 -0.0248,0.006 -0.10218,-0.18093 -0.17214,-0.41406 -0.0697,-0.23317 -0.14853,-0.41922 -0.17454,-0.41354 -0.0262,0.006 -0.0917,-0.1252 -0.14619,-0.29068 -0.0539,-0.16564 -0.11666,-0.29714 -0.13833,-0.29242 -0.0216,0.005 -0.0967,-0.18213 -0.16655,-0.41529 -0.0697,-0.23318 -0.14897,-0.41911 -0.17544,-0.41333 -0.0265,0.006 -0.073,-0.10288 -0.10323,-0.24142 -0.0302,-0.13857 -0.1384,-0.37275 -0.24026,-0.52039 l -0.18534,-0.26846 0.50858,-0.98257 c 0.27965,-0.54043 0.50642,-1.02883 0.50381,-1.08537 -0.002,-0.0565 0.0225,-0.10896 0.057,-0.1162 0.0342,-0.007 0.13388,-0.20529 0.22207,-0.43974 0.41148,-1.09322 0.93436,-1.42488 3.40257,-2.15786 0.7935,-0.2357 1.51044,-0.50117 1.59305,-0.58999 0.0826,-0.0889 0.22685,-0.23527 0.32056,-0.32545 0.0938,-0.0901 0.18599,-0.25251 0.20513,-0.36074 0.0898,-0.50825 -0.56218,-0.86032 -1.06563,-0.57546 -0.58448,0.33072 -1.51377,0.64517 -1.65714,0.56074 -0.0849,-0.0501 -0.20985,-0.0789 -0.27756,-0.0642 -0.0677,0.0147 -0.13508,-0.0291 -0.15,-0.0964 -0.0147,-0.0677 -0.0624,-0.11537 -0.10568,-0.10591 -0.0432,0.009 -0.077,-0.0413 -0.0744,-0.11281 0.002,-0.0715 0.0743,-0.14523 0.15999,-0.16387 0.14634,-0.0319 0.3034,-0.16309 0.66928,-0.55859 0.11989,-0.12968 0.43041,-0.15129 1.35785,-0.0948 1.28855,0.0785 1.68135,-0.0222 1.76899,-0.45347 0.0398,-0.19595 0.13197,-0.26548 0.44122,-0.3329 0.21501,-0.0469 0.41955,-0.12669 0.45457,-0.17743 0.0782,-0.1134 -0.001,-0.51387 -0.11607,-0.58203 -0.053,-0.0315 -0.10008,-0.16771 -0.12806,-0.37137 -0.0506,-0.37018 -0.0786,-0.39341 -0.51051,-0.41552 -0.21464,-0.0105 -0.32188,-0.0716 -0.36248,-0.20467 -0.0661,-0.21635 -0.58748,-0.4396 -1.3754,-0.58883 -0.54728,-0.10359 -1.28604,0.0859 -1.69418,0.43479 -0.1228,0.10498 -0.40574,0.28335 -0.62875,0.39644 -1.24844,0.63315 -2.01764,1.13599 -2.57333,1.68218 -0.14398,0.14157 -0.35554,0.31936 -0.4701,0.39522 -0.11456,0.0759 -0.24557,0.21901 -0.29102,0.31802 -0.11281,0.24547 -0.55896,0.61474 -1.31032,1.08437 -0.34619,0.21636 -0.66462,0.43459 -0.7077,0.48492 -0.0431,0.0503 -0.18517,0.16379 -0.31589,0.25201 -0.13066,0.0882 -0.41755,0.31931 -0.63744,0.51341 -0.21991,0.19411 -0.60344,0.51257 -0.85225,0.70768 -0.51375,0.40285 -0.69627,0.57316 -1.21056,1.12945 -0.64638,0.69917 -0.91579,0.86715 -1.45441,0.90691 -0.29987,0.0222 -0.55149,0.10207 -0.61933,0.19687 -0.0627,0.0877 -0.17231,0.24195 -0.24338,0.34266 -0.0916,0.12975 -0.11596,0.28853 -0.0837,0.54536 0.0375,0.29758 0.0127,0.39343 -0.13768,0.53683 -0.10066,0.096 -0.38128,0.41349 -0.62355,0.70553 -0.2423,0.29205 -0.53402,0.59393 -0.64839,0.67086 -0.25879,0.1741 -0.61755,0.79166 -0.60315,1.0382 0.006,0.10136 -0.0187,0.19078 -0.0544,0.1986 -0.0355,0.008 -0.0866,0.22757 -0.11304,0.48839 -0.0264,0.2608 -0.077,0.64101 -0.11269,0.84494 -0.0356,0.2039 -0.0571,0.40632 -0.0477,0.44981 0.0259,0.11874 -0.0528,0.51114 -0.17795,0.88795 -0.0615,0.1846 -0.11643,0.35169 -0.12235,0.37129 -0.006,0.0197 0.0238,0.24966 0.0662,0.51118 0.0424,0.26153 0.0607,0.49843 0.0406,0.52646 -0.0199,0.028 -0.0206,0.12353 -10e-4,0.21225 0.0194,0.0886 0.008,0.20068 -0.0252,0.24875 -0.0334,0.0481 -0.0427,0.16835 -0.0212,0.26723 0.0216,0.0988 -0.0298,0.57409 -0.11409,1.05603 -0.0843,0.48191 -0.13055,0.98069 -0.10277,1.10835 0.0764,0.35004 -0.0105,0.61347 -0.35121,1.06187 -1.14461,0.9534 -3.05522,2.95089 -4.9543,4.12564 z"
     style="fill:#554007;fill-opacity:1" />
  <path
     inkscape:connector-curvature="0"
     id="path4062-2"
     d="m 312.65262,2.9957708 -0.65235,0.16906 c -1.23681,0.32432 -1.53643,0.42497 -1.55183,0.50712 -0.009,0.0458 -0.14336,0.0977 -0.30132,0.12087 -0.15798,0.0232 -0.77212,0.36975 -1.37279,0.76868 -0.60074,0.39894 -1.16648,0.71875 -1.24665,0.70372 -0.0802,-0.015 -0.37263,0.12363 -0.65544,0.32042 -0.28278,0.19686 -0.89525,0.53145 -1.36593,0.73205 -0.47068,0.20058 -0.8692,0.37946 -0.8742,0.40615 -0.005,0.0267 -0.34503,0.19447 -0.76477,0.36334 -0.41977,0.16878 -0.77644,0.35782 -0.7885,0.42213 -0.0121,0.0644 -0.087,0.0969 -0.16752,0.0827 -0.0803,-0.015 -0.46289,0.18957 -0.84433,0.44973 -0.38145,0.26016 -0.75163,0.46635 -0.83212,0.45204 -0.0803,-0.0151 -0.15389,0.01 -0.1629,0.0581 -0.009,0.0474 -0.31279,0.27904 -0.67761,0.50636 -0.36479,0.22732 -0.89617,0.59814 -1.18159,0.82987 -0.28543,0.2317202 -0.73819,0.5898902 -0.99883,0.8007902 -0.26066,0.21084 -0.62733,0.47509 -0.81835,0.58129 -0.19094,0.1062 -0.43383,0.27825 -0.53992,0.38013 -0.1061,0.10189 -0.45572,0.39238 -0.78084,0.6516 -0.32517,0.25926 -0.6904,0.64511 -0.80765,0.86203 -0.1172,0.21689 -0.3034,0.39782 -0.40534,0.40537 -0.10189,0.008 -0.19544,0.0966 -0.2126,0.18814 -0.0172,0.0914 -0.20434,0.2528 -0.41067,0.36638 -0.20636,0.11364 -0.46034,0.32985 -0.57055,0.47578 -0.45037,0.59604 -1.31657,1.55832 -1.76129,1.96253 -0.55543,0.50479 -1.39413,1.51148 -1.81256,2.16833 -0.16243,0.25508 -0.53332,0.69428 -0.81603,0.97445 -0.96385,0.95494 -3.44163,3.24767 -4.01361,3.70644 -0.31378,0.25164 -0.5907,0.51581 -0.6057,0.59582 -0.015,0.0799 -0.11329,0.20015 -0.22637,0.26154 -0.11298,0.0614 -0.43827,0.34478 -0.71281,0.62648 -1.14626,1.17589 -1.58536,1.6137 -1.77813,1.782 -0.11204,0.098 -0.36833,0.36592 -0.57893,0.58822 -0.21057,0.22222 -0.62607,0.62629 -0.91699,0.90477 -0.60357,0.578 -1.23858,1.24327 -2.11005,2.20126 -0.33284,0.36587 -0.77711,0.84667 -0.98581,1.06924 -0.3257,0.34747 -0.65845,0.84459 -1.48214,2.23027 -0.089,0.14988 -0.2705,0.62461 -0.39995,1.05239 -0.23736,0.78468 -0.64981,1.34755 -0.95137,1.29102 -0.09,-0.0168 -0.16982,0.0275 -0.18202,0.0926 -0.0122,0.0651 -0.10643,0.11618 -0.19884,0.11473 -0.0924,-0.002 -0.46396,0.22745 -0.83133,0.51548 -0.36737,0.288 -0.72805,0.53648 -0.79925,0.54693 -0.0711,0.0108 -0.51807,0.26594 -0.99423,0.5736 -0.47612,0.30772 -1.12253,0.61954 -1.43474,0.69373 -1.08967,0.25916 -1.73386,0.46467 -1.74912,0.54612 -0.009,0.0452 -0.10243,0.0569 -0.20959,0.0368 -0.10718,-0.0201 -0.20305,0.002 -0.21182,0.0489 -0.0295,0.15723 -1.20773,0.58955 -2.32427,0.84367 -0.60812,0.1384 -1.10078,0.26361 -1.10513,0.28683 -0.004,0.0231 -0.67846,0.19236 -1.48985,0.37941 -0.81143,0.18705 -1.68723,0.43532 -1.93958,0.54848 -0.25234,0.11316 -0.51507,0.18033 -0.59653,0.14151 -0.0815,-0.0386 -0.52865,0.0378 -0.98204,0.17058 -0.45335,0.13277 -0.942,0.2621 -1.09291,0.28911 -0.15098,0.0275 -0.53266,0.10512 -0.84281,0.1714 -0.31013,0.0663 -0.7624,0.10297 -1.00496,0.0902 -0.24262,-0.0125 -0.74483,0.078 -1.11357,0.19663 -0.36876,0.11865 -0.75697,0.20011 -0.86959,0.179 -0.11265,-0.0212 -0.40869,0.015 -0.66081,0.0788 -0.25313,0.0641 -0.79918,0.0735 -1.22066,0.0245 -0.41976,-0.0487 -0.83913,-0.0537 -0.93536,-0.0108 -0.21906,0.0982 -2.95907,-0.40449 -3.31854,-0.60947 -0.13579,-0.0776 -0.80589,-0.26908 -1.49218,-0.41904 -0.7109,-0.15479 -1.27573,-0.32074 -1.30863,-0.38462 -0.0317,-0.0623 -0.40186,-0.17669 -0.81378,-0.25391 -0.41191,-0.0772 -0.86938,-0.21866 -1.0172,-0.3173 -0.1478,-0.0991 -0.48479,-0.21761 -0.74802,-0.26695 -0.26318,-0.0493 -0.70404,-0.19205 -0.98052,-0.31044 -0.54699,-0.23404 -1.93106,-0.47103 -2.35646,-0.40341 -0.18693,0.0296 -0.28284,0.0139 -0.34035,-0.0764 -0.0584,-0.0918 -0.0943,-0.0991 -0.12467,-0.0108 -0.0366,0.10674 -0.0579,0.10027 -0.1958,-0.0367 -0.1328,-0.13175 -0.22985,-0.14115 -0.57437,-0.0443 -0.22517,0.0634 -0.48985,0.11084 -0.58739,0.0926 -0.0976,-0.0183 -0.32552,0.008 -0.50475,0.0573 -0.17922,0.0497 -0.66928,0.14447 -1.09141,0.21346 -0.42211,0.069 -0.76156,0.14336 -0.7671,0.17289 -0.005,0.0296 -0.41906,0.15453 -0.9124,0.27224 -1.62487,0.38786 -2.29376,0.59934 -2.45199,0.78176 -0.0858,0.099 -0.46216,0.28582 -0.83745,0.41302 -0.3753,0.12727 -0.82994,0.32236 -1.01796,0.42991 -0.18801,0.1075 -0.45669,0.24989 -0.59196,0.31974 -0.60243,0.31089 -1.90886,1.72843 -2.73792,2.98284 -0.20989,0.3176 -0.50696,0.72954 -0.66538,0.914 -0.85649,0.99736 -1.26836,2.43304 -0.96276,3.37901 0.10449,0.32345 0.22807,0.6965 0.26389,0.82216 0.0357,0.12565 0.21314,0.37929 0.40001,0.56904 0.26184,0.26576 0.47606,0.36788 0.92852,0.45269 0.32295,0.0605 0.59259,0.0824 0.60114,0.0367 0.009,-0.0463 0.15201,-0.0602 0.322,-0.0283 0.16999,0.0318 0.42723,-0.0433 0.57437,-0.15832 0.14714,-0.11521 0.36353,-0.18394 0.47418,-0.16446 0.63625,0.11268 1.71792,-1.22709 2.01137,-2.48573 0.11049,-0.474 0.34163,-1.01388 0.51544,-1.1954 0.1738,-0.18158 0.49434,-0.50702 0.70666,-0.72896 0.50568,-0.5285 1.94424,-1.37098 2.24777,-1.31407 0.13101,0.0246 0.39155,0.004 0.5782,-0.0436 0.18663,-0.0482 0.64631,-0.12716 1.02101,-0.17591 0.72443,-0.0941 0.91319,-0.1346 1.50287,-0.31365 0.20458,-0.0621 0.57983,-0.0686 0.83977,-0.0199 0.25991,0.0487 0.51856,0.0396 0.5713,-0.006 0.0573,-0.0508 0.64626,0.003 1.457,0.13376 0.74662,0.12018 1.45305,0.201 1.56251,0.17893 0.31537,-0.0636 2.76166,0.427 2.97891,0.59687 0.11724,0.0914 0.76251,0.26876 1.7002,0.45806 0.82791,0.16782 1.61915,0.36436 1.75376,0.44272 0.40342,0.23496 4.35112,0.93468 4.96517,0.88037 0.27867,-0.0248 0.55201,-0.016 0.61569,0.0268 0.0637,0.043 0.1797,0.0337 0.25851,-0.0276 0.0786,-0.0606 0.40176,-0.0842 0.71968,-0.055 0.31796,0.0289 0.59083,0.0241 0.59808,-0.0146 0.008,-0.0388 0.28898,-0.0519 0.63709,-0.0199 0.66599,0.0611 1.17869,-0.003 1.2069,-0.15376 0.01,-0.0492 0.11395,-0.0672 0.23632,-0.0444 0.12229,0.0229 0.47682,-0.0205 0.79005,-0.0926 0.31325,-0.0721 0.77634,-0.15035 1.03328,-0.17361 0.44023,-0.0397 0.60124,-0.0726 1.19612,-0.23177 0.13443,-0.0358 0.50736,-0.0918 0.83597,-0.13468 1.16666,-0.1524 2.2993,-0.44826 3.42254,-0.89108 0.41685,-0.16437 0.83682,-0.29595 0.92921,-0.29452 0.0924,0.002 0.17443,-0.0519 0.18663,-0.11703 0.0122,-0.0651 0.11162,-0.10567 0.21872,-0.0856 0.10707,0.0201 0.20591,-0.0172 0.21876,-0.0857 0.0129,-0.0686 0.30959,-0.17039 0.6516,-0.23253 0.34203,-0.0622 0.6877,-0.18351 0.7709,-0.26079 0.0832,-0.0772 0.30609,-0.17692 0.49789,-0.22334 0.35661,-0.0865 1.72566,-0.47814 2.68909,-0.76265 0.29571,-0.0873 0.60528,-0.22208 0.68985,-0.3014 0.0846,-0.0792 0.22119,-0.15009 0.29596,-0.15986 0.0749,-0.01 0.4223,-0.1758 0.76713,-0.37553 0.34481,-0.19969 0.91975,-0.4386 1.29023,-0.53089 0.48488,-0.12068 1.13774,-0.37274 1.79574,-0.67489 0.34747,0.43342 0.43738,0.49198 0.7136,1.006 0.20377,0.28266 0.36854,0.70526 0.36794,0.94303 -0.001,0.56498 -1.12996,3.41519 -1.63962,4.15148 -0.75063,1.08445 -1.00084,1.4885 -1.16935,1.84556 -0.0927,0.19671 -0.26542,0.42507 -0.37243,0.50016 -0.6209,0.43583 -0.92697,1.20208 -1.23049,3.05018 -0.29044,1.76848 -0.28802,2.00515 0.0291,2.81757 0.64968,1.66417 1.14863,4.04597 1.01053,4.81296 -0.13605,0.75503 0.0916,1.62792 0.45589,1.75749 0.16984,0.0606 0.35512,0.16071 0.41531,0.21723 0.1648,0.15487 0.52008,0.0978 1.00647,-0.16599 l 0.43673,-0.23482 -0.0767,0.54294 c -0.0377,0.30231 -0.11108,0.72029 -0.17434,0.93007 -0.0632,0.20973 -0.0362,0.47631 0.0658,0.59501 0.10189,0.1187 0.2702,0.24067 0.3694,0.25926 0.2996,0.0561 1.0421,-0.18024 1.21146,-0.38092 0.0874,-0.10351 0.44071,-0.36039 0.77704,-0.56368 0.3363,-0.20337 0.82457,-0.67593 1.0837,-1.05094 0.25913,-0.375 0.58019,-0.82984 0.72272,-1.01722 0.14254,-0.18744 0.37726,-0.92715 0.52229,-1.63752 0.20509,-1.00557 0.21512,-1.40061 0.0221,-1.80721 -0.13629,-0.2873 -0.27517,-0.64355 -0.30747,-0.79235 -0.0323,-0.14884 -0.13113,-0.31309 -0.22413,-0.35868 -0.0929,-0.0457 -0.20106,-0.31394 -0.2417,-0.6027 -0.0406,-0.28869 -0.14899,-0.65399 -0.24169,-0.80536 -0.25252,-0.41213 -0.0958,-0.95675 0.41064,-1.3797 0.24842,-0.2075 0.59517,-0.5641 0.76937,-0.79316 0.17422,-0.22902 0.40712,-0.48882 0.51545,-0.58739 0.21629,-0.19685 0.66616,-0.67962 1.06309,-1.14347 0.14034,-0.16402 0.58482,-0.61639 0.98425,-0.99349 0.69806,-0.65914 0.95762,-0.98788 1.56092,-1.97487 0.15252,-0.2495 0.34,-0.48472 0.41378,-0.51781 0.23649,-0.1061 0.80235,-1.48035 1.14098,-2.77557 0.10146,-0.38809 3.20896,-2.22882 3.24041,-2.41995 l 4.64704,-0.19294 c 0.17011,0.16078 0.77671,0.32296 0.93463,0.35257 0.0947,0.0177 0.32259,0.15678 0.51167,0.31121 0.18912,0.15446 0.51324,0.31164 0.71969,0.35033 0.2065,0.0387 0.37383,0.10071 0.36563,0.14443 -0.009,0.044 0.1122,0.0276 0.48252,0.12889 0.088,0.0242 0.24573,-0.0147 0.32731,0.011 l -5.66333,4.19515 c -0.0307,0.002 -0.0558,0.004 -0.0901,0.009 -0.30322,0.0366 -0.7635,0.28879 -0.7908,0.43443 -0.0131,0.0696 -0.10027,0.10793 -0.19427,0.0903 -0.22697,-0.0425 -1.01072,0.50951 -1.44547,1.02099 -0.52596,0.6189 -0.94356,2.97568 -0.6054,3.43337 0.14276,0.19333 0.38586,0.5433 0.53923,0.77244 0.27974,0.41794 1.97617,1.68785 2.34348,1.75672 0.10783,0.0202 0.29487,0.12314 0.41532,0.21716 0.1204,0.0939 0.38778,0.19938 0.58891,0.23708 0.20111,0.0377 0.35565,0.12126 0.34646,0.17894 -0.0135,0.072 0.034,0.0844 0.14458,0.0397 0.0882,-0.0356 0.57975,-0.0125 1.10438,0.055 0.84478,0.10928 0.96949,0.14287 1.03175,0.30739 0.0386,0.10211 0.13495,0.18997 0.21491,0.20496 0.19688,0.0369 0.57209,0.90076 0.7106,1.61523 0.0623,0.32097 0.23885,0.82177 0.38702,1.11122 0.1482,0.28957 0.33191,0.7237 0.40004,0.97441 0.22915,0.84326 0.27037,0.91271 0.78247,1.29937 0.44508,0.33607 0.58627,0.40281 1.13118,0.45276 0.42342,0.0392 0.7079,-0.003 0.87265,-0.12781 0.40039,-0.30334 0.30389,-1.24092 -0.18669,-1.90968 -0.2428,-0.33104 -0.48419,-0.77448 -0.55147,-0.9774 -0.27672,-0.83468 -0.24748,-0.95995 0.30437,-1.28564 0.29627,-0.17492 0.5979,-0.30516 0.67536,-0.29147 0.0773,0.0145 0.44495,0.402 0.81149,0.87416 0.57719,0.74349 0.66218,0.9758 0.68532,1.74989 0.0147,0.49153 0.12465,1.10608 0.23871,1.36211 0.11402,0.25602 0.17297,0.63128 0.13461,0.83591 -0.0384,0.20475 0.011,0.54014 0.10179,0.74113 0.0908,0.20091 0.25916,0.3906 0.3786,0.413 0.19614,0.0368 0.47076,-0.17594 1.65731,-1.27275 0.71229,-0.65843 0.71169,-2.62127 -0.002,-4.04123 -0.1189,-0.23645 -0.34567,-0.78774 -0.50556,-1.22224 -0.57513,-1.56246 -1.56029,-2.92142 -2.29456,-3.16627 -0.18263,-0.0612 -0.32374,-0.15645 -0.31513,-0.21103 0.008,-0.0589 -0.075,-0.0649 -0.20035,-0.0124 -0.14157,0.06 -0.19929,0.0601 -0.18812,-0.01 0.0112,-0.0599 -0.23304,-0.14494 -0.56907,-0.20793 -0.32136,-0.0602 -0.59257,-0.0823 -0.60113,-0.0367 -0.009,0.0463 -0.19341,0.0523 -0.40765,0.0122 -0.52979,-0.0993 -0.45352,-0.29869 0.19886,-0.5201 0.29605,-0.10049 0.54731,-0.22319 0.56061,-0.28764 0.0121,-0.0645 0.28445,-0.28743 0.5973,-0.48334 0.59834,-0.37464 0.66289,-0.45361 0.35255,-0.52929 l 2.77164,-2.01384 3.26569,-2.14927 0.14532,-0.0994 c -0.0396,0.078 -0.0993,0.0914 -0.14532,0.0994 0.18942,0.0355 1.35211,-0.59065 1.38046,-0.7419 0.0136,-0.0728 0.28757,-0.36507 0.60264,-0.64707 1.13564,-1.01627 2.01529,-2.05813 2.45346,-2.88421 0.17207,-0.3247 0.5065,-0.82598 0.74106,-1.11516 0.52668,-0.64934 1.2257,-3.32452 1.12486,-4.31134 -0.0874,-0.85574 -0.84734,-2.42625 -1.20467,-2.49324 -0.0838,-0.0156 -0.14816,-0.088 -0.13613,-0.15218 0.0281,-0.14993 -0.86044,-0.81996 -1.16564,-0.87717 -0.1279,-0.024 -0.26573,-0.0918 -0.29981,-0.15757 -0.0476,-0.0921 -0.97927,-0.2939 -3.99774,-0.83804 l -3.93507,-0.69923 0.0391,-0.20811 c 0.0211,-0.1123 0.35295,-0.47234 0.73265,-0.79999 0.37965,-0.32766 0.88783,-0.81627 1.12728,-1.08069 0.23943,-0.26444 0.5868,-0.63867 0.77627,-0.82983 0.38061,-0.38417 0.96844,-1.43201 1.78804,-3.18637 0.62927,-1.34699 1.02808,-2.08513 1.43772,-2.6692 0.92128,-1.31359 1.03662,-1.4021 2.09936,-1.67127 0.35756,-0.0906 0.65807,-0.19932 0.66616,-0.24245 0.009,-0.0434 0.12643,-0.0523 0.27073,-0.0252 0.35013,0.0656 1.15443,-0.0768 1.17933,-0.20962 0.0109,-0.0582 0.20015,-0.13891 0.41301,-0.17594 0.21296,-0.037 0.46592,-0.13497 0.5614,-0.22415 0.0954,-0.0891 0.23464,-0.15861 0.31817,-0.14295 0.13285,0.0249 0.39915,-5e-4 1.38505,-0.15841 0.12715,-0.0205 0.49183,-0.008 0.80383,0.0367 0.31188,0.0447 0.71679,0.0598 0.90632,0.0305 0.29593,-0.0458 0.36158,-0.029 0.50699,0.13348 0.0931,0.10384 0.21231,0.1772 0.26083,0.16288 0.37119,-0.10959 1.4736,-0.6024 1.79726,-0.80316 0.21819,-0.13532 0.53894,-0.26137 0.69982,-0.28687 0.19669,-0.031 0.32218,-0.23207 0.39079,-0.59804 0.0951,-0.50749 0.0351,-0.8017 -0.32739,-1.63213 -0.185,-0.42382 -0.95446,-1.41673 -1.19316,-1.54105 -0.33057,-0.17205 -0.11021,-1.4423 0.31708,-1.82795 0.61941,-0.55902 0.73044,-1.60481 0.2676,-2.50859 -0.39146,-0.76439 -0.96847,-1.51168 -1.20307,-1.55567 -0.0709,-0.0133 -0.31324,-0.14086 -0.54306,-0.27909 -0.22977,-0.13829 -0.52833,-0.27635 -0.66538,-0.30205 -0.13709,-0.0257 -0.30009,-0.12818 -0.34954,-0.2302602 -0.0495,-0.1021 -0.24703,-0.23218 -0.4505,-0.29973 -0.20333,-0.0681 -0.36158,-0.16596 -0.35413,-0.20576 0.008,-0.0395 -0.16874,-0.12761 -0.38088,-0.19807 -0.21213,-0.0704 -0.59496,-0.2526 -0.84744,-0.41222 -0.25244,-0.15967 -0.69335,-0.3663 -0.99198,-0.45195 -0.61849,-0.17744 -0.77359,-0.33436 -0.54915,-0.58429 0.27336,-0.30445 0.97461,-0.36868 1.14643,-0.10178 0.0629,0.0977 0.11374,0.10907 0.26922,0.0505 0.14622,-0.0551 0.24757,-0.0156 0.3855,0.17363 0.29283,0.40166 1.00066,0.4791 1.47685,0.16275 0.51334,-0.34095 0.65299,-1.03616 0.25078,-1.27035 -0.16534,-0.0963 -0.33389,-0.17582 -0.37326,-0.17123 -0.23781,0.0274 -0.64998,-0.11415 -0.63023,-0.2195 0.0244,-0.13 0.56771,-0.0586 1.29871,0.16736 0.2212,0.0684 0.57328,0.30102 0.77555,0.52547 0.20219,0.22438 0.47415,0.43085 0.61109,0.45652 0.13698,0.0257 0.39246,0.22452 0.56444,0.43514 0.17201,0.21069 0.36132,0.41131 0.42295,0.44666 0.0616,0.0355 0.15989,0.15087 0.21572,0.26843 0.12514,0.26352 0.45595,0.3392 0.63177,0.14359 0.072,-0.0802 0.32004,-0.13631 0.55526,-0.12392 0.23518,0.0123 0.50211,-0.004 0.59044,-0.0413 0.46613,-0.19275 0.10113,-1.50116 -0.44669,-1.60387 -0.12801,-0.024 -0.39208,-0.35584 -0.58514,-0.73036 -0.1931,-0.37456 -0.45608,-0.72059 -0.59046,-0.7694 -0.13438,-0.0486 -0.23773,-0.12945 -0.23172,-0.18276 0.0208,-0.17148 -0.62305,-0.58999 -1.13964,-0.7456 -0.27631,-0.083 -0.49757,-0.18388 -0.49101,-0.21878 0.006,-0.0346 -0.34787,-0.15273 -0.78701,-0.26151 -0.43918,-0.10868 -0.84406,-0.2474 -0.9048,-0.30892 -0.0607,-0.0611 -0.86044,-0.28196 -1.77137,-0.48403 l -1.65513,-0.36067 z"
     style="fill:#35280b;fill-opacity:1" />
  <path
     inkscape:connector-curvature="0"
     id="path3938-1"
     d="m 5.6101781,102.6289 c 0.293082,-0.45675 0.685731,-1.06882 0.873144,-1.35946 0.399734,-0.61992 0.432965,-0.79334 0.132627,-0.7958 -0.120936,0 -0.616871,-0.18152 -1.094191,-0.40891 -0.477338,-0.227369 -0.964755,-0.408949 -1.094218,-0.408949 -0.129451,0 -0.331891,-0.0952 -0.442098,-0.19899 -0.110201,-0.10373 -0.251887,-0.18785 -0.32052,-0.18785 -0.210323,0 -0.555824,-0.89435 -0.442098,-1.14944 0.116074,-0.26042 1.093235,-1.40667 1.823656,-2.13314 0.452952,-0.45046 0.45267,-0.45638 0.397894,-2.19943 -0.04538,-1.44369 3.18e-4,-1.84391 0.243151,-2.26578 0.483073,-0.8392 1.270546,-1.31256 2.354175,-1.41473 0.300851,-0.0282 0.552625,-0.0833 0.552625,-0.12155 0,-0.0382 0.789815,-0.0774 1.7573399,-0.0774 1.055491,0 1.757347,0.0324 1.757347,0.0774 0,0.0418 0.437439,0.0773 0.972619,0.0773 0.702655,0 0.998973,0.0288 1.072089,0.11052 0.0557,0.0623 0.216771,0.12161 0.353679,0.12161 0.136907,0 0.485545,0.15878 0.773675,0.35369 0.288125,0.19497 0.519466,0.30565 0.519466,0.2542 0,-0.0512 0.206721,-0.18602 0.453146,-0.29838 0.548985,-0.25038 1.116594,-0.78727 1.481037,-1.41472 0.07519,-0.1295 0.421985,-0.47755 0.773666,-0.77368 0.35169,-0.29613 0.641044,-0.58844 0.641044,-0.65213 0,-0.0636 0.389388,-0.51195 0.87315,-0.99467 0.483762,-0.482781 0.884197,-0.913961 0.884197,-0.950551 0,-0.0367 0.197195,-0.15289 0.442099,-0.26523 0.244902,-0.11235 0.489759,-0.29416 0.541571,-0.39788 0.05182,-0.10388 0.249467,-0.46051 0.442098,-0.7958 l 0.718392,-1.65783 0.331573,-0.596859 c 0.536788,-0.9743 0.682672,-1.31341 0.961564,-2.16631 0.14508,-0.44368 0.468402,-1.04362 0.707366,-1.32631 0.238959,-0.28275 0.431041,-0.51995 0.431041,-0.53051 0,-0.0108 0.142549,-0.022 0.320525,-0.022 0.74915,0 1.119877,0.95154 0.663144,1.70206 -0.42326,0.69547 -0.806797,1.62355 -0.806828,1.93418 -1.6e-5,0.15235 0.14015,0.38077 0.309468,0.50845 0.244311,0.18419 0.419423,0.231719 0.873149,0.232069 0.314444,2.8e-4 0.574724,-0.0356 0.574724,-0.0774 0,-0.0418 0.12013,-0.0663 0.265257,-0.0663 0.145132,0 0.265267,-0.0356 0.265267,-0.0774 0,-0.0418 0.101779,-0.0774 0.2321,-0.0774 0.130325,0 0.417927,-0.0716 0.64104,-0.15471 0.223111,-0.0831 0.470681,-0.14371 0.552629,-0.14371 0.08195,0 0.154731,-0.0339 0.154731,-0.0774 0,-0.0429 0.160174,-0.15399 0.353677,-0.24313 0.19351,-0.0892 0.353684,-0.2232 0.353684,-0.29843 0,-0.28165 1.374803,-0.10984 1.414716,0.17687 0.0076,0.0548 0.09071,0.004 0.187888,-0.11056 0.294436,-0.34597 1.027886,-0.21112 1.027886,0.18784 0,0.17286 0.0855,0.21009 0.43104,0.21009 0.316678,0 0.461767,0.0632 0.607887,0.24312 0.218485,0.26893 0.07677,0.961539 -0.198941,0.961539 -0.111702,0 -0.13021,0.19307 -0.05526,0.51948 0.104378,0.45454 0.06454,0.53845 -0.265256,0.71837 -0.205205,0.11199 -0.78177,0.28446 -1.28209,0.38688 -0.500321,0.10244 -1.133602,0.27093 -1.414716,0.37582 -0.28112,0.10482 -0.621486,0.18784 -0.751571,0.18784 -0.13008,0 -0.232099,0.0356 -0.232099,0.0774 0,0.0418 -0.08423,0.0774 -0.187894,0.0774 -0.103662,0 -0.296183,0.0476 -0.431046,0.0994 -0.605284,0.23286 -0.792383,0.27625 -1.027881,0.27625 -0.287524,0 -1.0368,0.71691 -1.447873,1.392672 -0.151547,0.24907 -0.38338,1.08868 -0.519467,1.85677 -0.222071,1.25348 -0.435244,1.87632 -0.961565,2.82944 -0.0917,0.1661 -0.381105,0.69411 -0.641044,1.17155 -0.259935,0.4775 -0.741998,1.13475 -1.072092,1.4589 l -0.596813,0.58578 c -0.180527,0.23946 -0.36106,0.47896 -0.541593,0.71847 -0.52527,0.71596 -1.22369,1.41357 -1.901004,2.03365 -0.287964,0.25074 -0.519461,0.48936 -0.519461,0.53046 0,0.0413 -0.272388,0.34339 -0.59684,0.67419 -0.624309,0.63674 -1.197867,1.614279 -1.569447,2.674729 -0.209947,0.59916 -0.196046,0.6802 0.154731,1.13846 0.206612,0.26983 0.53901,0.71376 0.740514,0.98359 0.366967,0.49152 1.043032,1.63034 1.425774,2.40946 0.112183,0.22837 0.325172,0.63644 0.475255,0.90633 0.150083,0.26988 0.372667,0.74962 0.497362,1.06102 0.42016,1.04926 0.804099,1.84501 1.083143,2.24367 0.152582,0.21797 0.294295,0.39787 0.309468,0.39787 0.01516,0 0.652175,1.01099 0.817886,1.08314 0.165705,0.0721 0.252312,0.006 0.408935,-0.33157 0.104451,-0.22477 0.502606,-0.8106 0.87315,-1.28208 0.146831,-0.18686 0.368338,-0.475 0.486309,-0.64105 0.53753,-0.75668 1.743705,-1.5002 2.531016,-1.55844 0.368092,-0.0272 0.627525,0.21196 0.32052,0.29843 -0.187826,0.0529 -0.462535,0.46427 -0.309472,0.46427 0.05462,0 0.299696,-0.0841 0.541572,-0.18796 0.780509,-0.33492 1.481031,-0.22555 1.481031,0.23214 0,0.15878 0.07553,0.18785 0.61894,0.18785 0.553356,0 0.655857,0.0303 0.895254,0.27632 0.251507,0.25833 0.250838,0.31965 -0.121578,0.93947 -0.247659,0.41225 -0.487093,0.66315 -0.629992,0.66315 -0.164566,0 -0.2321,0.13479 -0.2321,0.45314 0,0.61489 -0.08792,0.68527 -0.862097,0.68527 -0.357306,0 -0.743085,0.0314 -0.851039,0.0774 -0.107964,0.0465 -0.374313,0.12977 -0.585782,0.17682 -0.892055,0.19868 -1.950071,1.7372 -2.619432,3.80206 -0.191465,0.59064 -0.429101,1.13449 -0.530524,1.21578 -0.101408,0.0813 -0.187889,0.23141 -0.187889,0.33153 0,0.10017 -0.118985,0.28316 -0.265257,0.40901 -0.146277,0.12579 -0.339483,0.57129 -0.431051,0.98365 -0.169036,0.76129 -0.291257,1.00403 -0.563677,1.08314 -0.342625,-0.0848 -0.68525,-0.16945 -1.027876,-0.2542 -0.293547,-0.11225 -0.6139,-0.19062 -0.70736,-0.16579 -0.09347,0.0251 -0.165783,-0.0167 -0.165783,-0.0994 0,-0.0831 -0.08009,-0.17332 -0.176842,-0.19894 -0.03566,-0.009 -0.06464,-0.0209 -0.08842,-0.022 -0.166479,-0.006 -0.02457,0.23977 0.629993,1.16052 0.09065,0.12747 0.165783,0.36342 0.165783,0.53047 0,0.19846 0.11039,0.34951 0.320525,0.43107 0.17693,0.0687 0.377154,0.12156 0.442099,0.12156 0.06495,0 0.552619,0.022 0.552619,0.022 l 0.817887,-0.35365 c 0.559698,-0.24039 1.016545,-0.36864 1.43682,-0.39792 0.596291,-0.0418 0.633726,-0.0282 1.072091,0.34271 0.386286,0.32708 0.453151,0.48775 0.453151,1.06098 0,0.69808 -0.213398,1.03907 -0.839986,1.34843 -0.372406,0.18387 -0.909335,0.22466 -1.226827,0.0884 -0.148144,-0.0636 -0.269932,-0.023 -0.475256,0.1879 -0.151751,0.15585 -0.265258,0.31009 -0.265258,0.33153 0,0.0214 -0.260284,0.20787 -0.574728,0.41999 0,0 -0.419209,0.21619 -0.57473,0.38689 -0.435229,0.47771 -0.928413,1.70201 -0.928413,1.70201 -0.07482,0.13724 -0.514975,-0.0978 -0.839982,-0.0884 -0.545696,0.0162 -0.617386,-0.0131 -1.204721,-0.46416 -0.344831,-0.26461 -0.629992,-0.54071 -0.629992,-0.6079 0,-0.17844 -0.523812,-0.80724 -0.762619,-0.91735 -0.157879,-0.0728 -0.280429,0.10817 -0.508414,0.78471 -0.432969,1.2848 -0.387703,1.71598 0.386836,4.49836 0.09246,0.33216 0.24394,0.89603 0.342625,1.24893 0.771846,2.76023 0.614637,9.73387 -0.276315,12.3788 -0.04894,0.14535 -0.149858,0.56575 -0.232099,0.93942 -0.178556,0.81138 -0.702294,2.60865 -1.248927,4.29943 -0.107382,0.33215 -0.261514,0.84782 -0.342625,1.1384 -0.08112,0.29064 -0.234191,0.67524 -0.342626,0.8621 -0.108445,0.18685 -0.34103,0.6666 -0.519466,1.06102 -0.417463,0.92274 -0.678442,1.32992 -1.061038,1.65789 -0.169805,0.14556 -0.364364,0.42104 -0.431051,0.60789 -0.06668,0.18681 -0.245024,0.48733 -0.397888,0.67419 -0.15286,0.18686 -0.343582,0.4626 -0.419993,0.6079 -0.07641,0.14534 -0.335055,0.56575 -0.574731,0.93947 -1.008316,1.57203 -1.227271,1.98899 -1.878919,3.62518 -0.09922,0.24913 -0.421844,0.98119 -0.718408,1.62469 -0.7492819,1.62589 -0.9645509,3.13922 -0.6189399,4.37681 0.144933,0.51901 0.3140249,1.65914 0.3757829,2.53101 0.0974,1.37519 0.08056,1.6365 -0.1768369,1.95632 -0.163206,0.20275 -0.455739,0.4341 -0.641045,0.51943 -0.185306,0.0854 -0.331572,0.1901 -0.331572,0.23208 0,0.0434 -0.08954,0.0408 -0.209999,-0.011 -0.116111,-0.0497 -0.356359,-0.0884 -0.530519,-0.0884 -0.174155,0 -0.320521,-0.0593 -0.320521,-0.12161 0,-0.0623 -0.06458,-0.11052 -0.143683,-0.11052 -0.211699,0 -0.920009,-0.97884 -1.105247,-1.52525 -0.372703,-1.09924 -0.639037,-2.56353 -0.59683,-3.33784 0.272603,-5.0009 0.42198,-5.78373 1.436815,-7.94673 0.424641,-0.90501 1.679362,-3.07935 2.22155,-3.8352 0.5246689,-0.73149 1.1444079,-1.74202 1.2710319,-2.07788 0.07043,-0.18681 0.279604,-0.50531 0.464204,-0.71837 0.33027,-0.38119 0.636432,-0.94998 1.1163,-2.06684 0.133782,-0.3114 0.321499,-0.71947 0.419994,-0.90627 0.330647,-0.62724 0.909774,-2.14302 1.182613,-3.09473 0.486621,-1.69741 0.571681,-1.99187 0.75157,-2.64148 0.250289,-0.90392 0.524005,-1.75514 0.629993,-1.94529 0.112445,-0.20171 0.132584,-6.55031 0.02213,-7.11779 -0.241949,-1.24276 -0.332222,-1.45905 -0.641041,-1.59154 -0.175617,-0.0754 -0.367109,-0.28128 -0.431044,-0.46422 -0.164817,-0.47159 -0.268128,-0.51435 -1.381559,-0.56366 -0.547267,-0.0246 -0.994729,-0.0748 -0.994729,-0.11058 0,-0.0356 -0.06007,-0.0528 -0.132626,-0.0439 -0.308077,0.0366 -1.624715,-0.0976 -1.624715,-0.16579 0,-0.0413 -0.11709,-0.0774 -0.265257,-0.0774 -0.1481639,0 -0.3210999,-0.0497 -0.3757879,-0.11052 -0.05467,-0.0612 -0.356522,-0.12919 -0.674198,-0.15476 -0.376074,-0.0303 -0.647836,-0.11355 -0.773677,-0.23203 -0.106284,-0.10012 -0.305382,-0.18796 -0.442096,-0.18796 -0.13671,0 -0.292973,-0.0841 -0.353674,-0.18785 -0.06071,-0.10378 -0.192458,-0.18796 -0.287366,-0.18796 -0.09491,0 -0.165789,-0.0356 -0.165789,-0.0773 0,-0.0768 -0.634923,-0.3758 -0.795781,-0.3758 -0.209879,0 -0.747733,-0.28767 -0.839982,-0.45319 -0.165401,-0.29661 -0.78226,-1.0213 -1.083142,-1.271 -0.15444,-0.12814 -0.276315,-0.28886 -0.276315,-0.36477 0,-0.0759 -0.160174,-0.19413 -0.353678,-0.26529 -0.193504,-0.071 -0.353678,-0.20474 -0.353678,-0.28734 0,-0.0825 -0.185232,-0.39437 -0.4199923,-0.69626 -0.234777,-0.30188 -0.515703,-0.78147 -0.61894,-1.07216 -0.103239,-0.29059 -0.353129,-0.81859 -0.552625,-1.17155 -0.74563099,-1.31899 -1.00345899,-1.74871 -0.89524899,-3.83516 l 0.20864899,-4.02311 c 0,0 0.414337,-3.64071 0.98008,-5.40511 0.367986,-1.14766 0.759809,-2.39011 1.1596123,-3.52705 0.755141,-1.92814 1.226486,-2.4712 2.437399,-4.08763 z"
     style="fill:#220c00;fill-opacity:1" />
  <path
     style="fill:#ffffff;fill-opacity:0.14093959;fill-rule:evenodd;stroke:none;stroke-width:1px;stroke-linecap:butt;stroke-linejoin:miter;stroke-opacity:1"
     d="M 271.434,174.98937 327.93627,0.00398844 511.99873,-8.123e-5 511.99822,175.00551 Z"
     id="path4191"
     inkscape:connector-curvature="0"
     sodipodi:nodetypes="ccccc" />
</svg>
